<svg width="412" height="136" viewBox="0 0 412 136" fill="none" xmlns="http://www.w3.org/2000/svg">
<path d="M276.06 83.1454H0V0.525391H367.45V35.3854H365.83V2.15539H1.63V81.5154H276.06V83.1454Z" fill="#051314"/>
<path d="M411.6 135.476L276.66 134.026V54.9961H411.6V135.476ZM278.29 132.416L409.97 133.836V56.6261H278.29V132.416Z" fill="#051314"/>
<path d="M401.07 125.675L287.66 124.745V73.6348H401.07V125.675ZM288.86 123.545L399.87 124.455V74.8248H288.86V123.545Z" fill="#051314"/>
<path d="M48.4592 55.5652H27.9492V29.3652H48.4592V55.5652ZM29.5792 53.9352H46.8292V30.9952H29.5792V53.9352Z" fill="#051314"/>
<path d="M91.7908 55.5652H52.3008V29.3652H91.7908V55.5652ZM53.9308 53.9352H90.1608V30.9952H53.9308V53.9352Z" fill="#051314"/>
<path d="M135.049 55.5652H95.5586V29.3652H135.049V55.5652ZM97.1886 53.9352H133.419V30.9952H97.1886V53.9352Z" fill="#051314"/>
<path d="M116.118 30.4355H114.488V53.9755H116.118V30.4355Z" fill="#051314"/>
<path d="M178.709 55.5652H139.219V29.3652H178.709V55.5652ZM140.849 53.9352H177.079V30.9952H140.849V53.9352Z" fill="#051314"/>
<path d="M158.95 30.4355H157.32V53.9755H158.95V30.4355Z" fill="#051314"/>
<path d="M81.7991 133.485H21.5391V83.6352H23.1691V131.855H80.1691V82.0352H81.7991V133.485Z" fill="#051314"/>
<path d="M143.329 133.485H133.859V83.6352H135.489V131.855H141.699V82.0352H143.329V133.485Z" fill="#051314"/>
<path d="M207.991 133.485H198.531V83.6352H200.161V131.855H206.361V82.0352H207.991V133.485Z" fill="#051314"/>
<path d="M224.989 82.875H223.359V131.755H224.989V82.875Z" fill="#051314"/>
<path d="M273.269 133.486H244.309V83.1856H245.939V131.856H271.619L271.019 82.2856L272.649 82.2656L273.269 133.486Z" fill="#051314"/>
<path d="M293.392 74.6445H292.172V124.835H293.392V74.6445Z" fill="#051314"/>
<path d="M298.099 74.6445H296.879V124.835H298.099V74.6445Z" fill="#051314"/>
<path d="M302.822 74.6445H301.602V124.835H302.822V74.6445Z" fill="#051314"/>
<path d="M307.529 74.6445H306.309V124.835H307.529V74.6445Z" fill="#051314"/>
<path d="M312.24 74.6445H311.02V124.835H312.24V74.6445Z" fill="#051314"/>
<path d="M316.95 74.6445H315.73V124.835H316.95V74.6445Z" fill="#051314"/>
<path d="M321.661 74.6445H320.441V124.835H321.661V74.6445Z" fill="#051314"/>
<path d="M326.368 74.6445H325.148V124.835H326.368V74.6445Z" fill="#051314"/>
<path d="M331.079 74.6445H329.859V124.835H331.079V74.6445Z" fill="#051314"/>
<path d="M335.79 74.6445H334.57V124.835H335.79V74.6445Z" fill="#051314"/>
<path d="M340.509 74.6445H339.289V124.835H340.509V74.6445Z" fill="#051314"/>
<path d="M345.22 74.6445H344V124.835H345.22V74.6445Z" fill="#051314"/>
<path d="M349.931 74.6445H348.711V124.835H349.931V74.6445Z" fill="#051314"/>
<path d="M354.642 74.6445H353.422V124.835H354.642V74.6445Z" fill="#051314"/>
<path d="M359.349 74.6445H358.129V124.835H359.349V74.6445Z" fill="#051314"/>
<path d="M364.06 74.6445H362.84V124.835H364.06V74.6445Z" fill="#051314"/>
<path d="M368.771 74.6445H367.551V124.835H368.771V74.6445Z" fill="#051314"/>
<path d="M373.482 74.6445H372.262V124.835H373.482V74.6445Z" fill="#051314"/>
<path d="M378.2 74.6445H376.98V124.835H378.2V74.6445Z" fill="#051314"/>
<path d="M382.911 74.6445H381.691V124.835H382.911V74.6445Z" fill="#051314"/>
<path d="M387.618 74.6445H386.398V124.835H387.618V74.6445Z" fill="#051314"/>
<path d="M392.329 74.6445H391.109V124.835H392.329V74.6445Z" fill="#051314"/>
<path d="M397.04 74.6445H395.82V124.835H397.04V74.6445Z" fill="#051314"/>
<path d="M411.548 55.8158H409.918V36.5558H278.118V55.8158H276.488V34.9258H411.548V55.8158Z" fill="#051314"/>
<path d="M322.591 35.7461H320.961V55.8161H322.591V35.7461Z" fill="#051314"/>
<path d="M367.071 35.7461H365.441V55.8161H367.071V35.7461Z" fill="#051314"/>
<path d="M410.84 40.9062H278.09V42.5362H410.84V40.9062Z" fill="#051314"/>
<path d="M410.84 47.9961H278.09V49.6261H410.84V47.9961Z" fill="#051314"/>
</svg>
