<svg width="138" height="24" viewBox="0 0 138 24" fill="none" xmlns="http://www.w3.org/2000/svg">
<path d="M36.5264 19.0539C35.6121 19.0539 34.72 18.9176 33.8749 18.6487C33.0375 18.3822 32.2863 17.9826 31.642 17.4606C31.0015 16.9422 30.4807 16.2976 30.094 15.5452C29.7102 14.7989 29.5156 13.9258 29.5156 12.9501C29.5156 11.9747 29.7102 11.1018 30.094 10.3554C30.4803 9.60367 31.0007 8.96237 31.6408 8.44919C32.2849 7.93279 33.0392 7.53562 33.8827 7.26872C34.733 6.99968 35.6224 6.86328 36.5264 6.86328C37.2387 6.86328 37.9734 6.94558 38.71 7.10796C39.4388 7.2688 40.126 7.52397 40.7522 7.8665C41.3699 8.20451 41.9136 8.64903 42.368 9.18781C42.7369 9.62551 43.0135 10.1457 43.1928 10.738H41.1809C40.9886 10.3368 40.7484 9.98544 40.4652 9.69157C40.1408 9.3554 39.7694 9.07547 39.3612 8.8593C38.956 8.64467 38.5091 8.4875 38.0329 8.3921C37.5661 8.29876 37.0819 8.25148 36.5936 8.25148C35.8984 8.25148 35.2448 8.36581 34.651 8.59125C34.0551 8.81777 33.534 9.13923 33.1022 9.54674C32.6692 9.95578 32.3254 10.4514 32.0803 11.0199C31.8348 11.5885 31.7103 12.2267 31.7103 12.9166C31.7103 13.6068 31.8348 14.2451 32.0804 14.8134C32.3249 15.3808 32.6681 15.8788 33.1004 16.2932C33.5329 16.7074 34.0545 17.0324 34.651 17.2588C35.2433 17.4841 35.8969 17.5983 36.5936 17.5983C37.0839 17.5983 37.5681 17.5511 38.0329 17.4579C38.507 17.3631 38.9529 17.2094 39.358 17.0009C39.7664 16.7906 40.1375 16.5198 40.4612 16.196C40.745 15.9123 40.9858 15.5709 41.1787 15.1792H43.1928C43.0135 15.7714 42.7369 16.2917 42.3679 16.7296C41.9134 17.2684 41.3698 17.713 40.7522 18.0507C40.1264 18.3931 39.4393 18.6484 38.7099 18.8093C37.9736 18.9716 37.2389 19.0539 36.5264 19.0539Z" fill="#051314"/>
<path d="M52.3314 19.0539C51.462 19.0539 50.5956 18.9176 49.756 18.6488C48.9231 18.382 48.1741 17.9848 47.5299 17.4681C46.8894 16.9547 46.363 16.3099 45.9652 15.5513C45.571 14.7998 45.3711 13.9246 45.3711 12.9501C45.3711 11.9763 45.5708 11.1044 45.9647 10.3585C46.3622 9.60582 46.8913 8.96367 47.5373 8.44995C48.1876 7.93286 48.9371 7.53524 49.7651 7.26819C50.5981 6.99953 51.4615 6.86328 52.3314 6.86328C53.2012 6.86328 54.0647 6.99953 54.8979 7.26819C55.725 7.53508 56.4714 7.9324 57.1164 8.44919C57.7572 8.96321 58.2839 9.60559 58.6815 10.3585C59.0754 11.1044 59.2752 11.9764 59.2752 12.9501C59.2752 13.9242 59.078 14.7968 58.689 15.5436C58.2967 16.2963 57.7703 16.9411 57.1245 17.4599C56.474 17.9822 55.7249 18.3824 54.8979 18.6491C54.0642 18.9176 53.2007 19.0539 52.3314 19.0539ZM52.3314 8.25148C51.6798 8.25148 51.0563 8.3662 50.4783 8.5924C49.9002 8.819 49.3886 9.14007 48.9577 9.54674C48.5244 9.95608 48.1805 10.4549 47.9353 11.0293C47.6901 11.6033 47.5657 12.2496 47.5657 12.9501C47.5657 13.6395 47.69 14.2826 47.9349 14.8618C48.1795 15.4411 48.523 15.9453 48.9559 16.3604C49.3875 16.774 49.8997 17.0984 50.4783 17.3248C51.055 17.5509 51.6785 17.6655 52.3314 17.6655C52.9959 17.6655 53.6227 17.5507 54.1942 17.3243C54.7673 17.0977 55.2741 16.7729 55.7002 16.3589C56.1265 15.9443 56.4666 15.4406 56.7114 14.8617C56.9563 14.2815 57.0806 13.6383 57.0806 12.9501C57.0806 12.2507 56.9562 11.6044 56.7109 11.0294C56.4652 10.4542 56.1212 9.95547 55.6886 9.54681C55.2579 9.14037 54.7495 8.81945 54.1774 8.59286C53.6045 8.36635 52.9835 8.25148 52.3314 8.25148Z" fill="#051314"/>
<path d="M94.2559 7H92.2461V18.9049H94.2559V7Z" fill="#051314"/>
<path d="M107.443 18.9049L104.772 14.5201H99.9641V18.9049H97.9375V7H106.208C106.698 7 107.159 7.09778 107.581 7.29073C108.008 7.48606 108.388 7.75686 108.711 8.09556C109.035 8.43449 109.293 8.83924 109.479 9.29863C109.664 9.75718 109.758 10.2517 109.758 10.7684C109.758 11.4606 109.591 12.1098 109.261 12.6981C108.932 13.2841 108.479 13.7475 107.915 14.0756L106.932 14.6377L109.53 18.9049L107.443 18.9049ZM99.9641 13.1319H105.368C105.703 13.1319 106.018 13.0659 106.305 12.9358C106.584 12.8088 106.833 12.6376 107.043 12.4268C107.255 12.2149 107.425 11.9645 107.546 11.6826C107.669 11.3978 107.732 11.0902 107.732 10.7684C107.732 10.4478 107.67 10.1383 107.547 9.84852C107.425 9.55978 107.256 9.30583 107.043 9.09342C106.833 8.88292 106.584 8.71166 106.305 8.58445C106.018 8.45418 105.703 8.38821 105.368 8.38821H99.9641V13.1319Z" fill="#051314"/>
<path d="M112.855 18.9049V7H122.946V8.3882H114.882V12.1911H122.392V13.5962H114.882V17.5167H123.064V18.9049H112.855Z" fill="#051314"/>
<path d="M131.745 19.0539C131.093 19.0539 130.403 18.9986 129.693 18.8895C128.998 18.7826 128.342 18.5878 127.745 18.3103C127.159 18.0383 126.644 17.6616 126.215 17.1908C125.872 16.8144 125.63 16.3424 125.492 15.7841H127.592C127.796 16.1471 128.043 16.4499 128.328 16.6861C128.65 16.9537 129.014 17.1637 129.411 17.3102C129.798 17.4533 130.213 17.5496 130.645 17.5965C131.062 17.6423 131.494 17.6655 131.93 17.6655C132.262 17.6655 132.641 17.6482 133.056 17.6141C133.488 17.5787 133.899 17.4975 134.279 17.3727C134.679 17.2416 135.025 17.0442 135.308 16.7857C135.627 16.4953 135.789 16.1036 135.789 15.6215C135.789 15.1396 135.594 14.751 135.224 14.4975C134.905 14.2789 134.483 14.1128 133.969 14.004C133.483 13.9009 132.926 13.8254 132.315 13.7796C131.719 13.7353 131.099 13.6845 130.471 13.6287C129.852 13.574 129.242 13.488 128.656 13.3731C128.088 13.2616 127.574 13.0877 127.127 12.8563C126.701 12.6359 126.356 12.3318 126.101 11.9522C125.852 11.5814 125.726 11.0806 125.726 10.4638C125.726 10.0569 125.81 9.68697 125.976 9.36444C126.149 9.03011 126.383 8.72628 126.674 8.46129C126.971 8.18965 127.316 7.95095 127.699 7.75179C128.088 7.54919 128.502 7.38144 128.929 7.25324C129.36 7.12405 129.8 7.02558 130.237 6.96083C130.673 6.89608 131.085 6.86328 131.46 6.86328C132.089 6.86328 132.753 6.92121 133.432 7.03539C134.1 7.14757 134.735 7.34259 135.317 7.61501C135.888 7.88206 136.392 8.24834 136.816 8.70375C137.148 9.06015 137.399 9.49455 137.565 9.99869H135.534C135.352 9.66023 135.13 9.37816 134.873 9.15839C134.576 8.90567 134.239 8.70888 133.87 8.57325C133.511 8.44176 133.124 8.35394 132.718 8.31218C132.328 8.27187 131.921 8.25149 131.51 8.25149C131.045 8.25149 130.597 8.2931 130.181 8.37509C129.757 8.45884 129.379 8.58413 129.058 8.74766C128.719 8.92007 128.448 9.14015 128.252 9.40183C128.043 9.68061 127.937 9.99831 127.937 10.3461C127.937 10.8373 128.131 11.2339 128.499 11.4932C128.819 11.7195 129.244 11.8866 129.76 11.9897C130.25 12.0877 130.808 12.1517 131.42 12.1801C132.013 12.2079 132.631 12.2473 133.258 12.2971C133.877 12.3464 134.488 12.4242 135.076 12.5284C135.639 12.6287 136.15 12.8013 136.594 13.0416C137.021 13.2726 137.367 13.5903 137.622 13.9856C137.873 14.3746 138 14.9023 138 15.5541C138 16.0247 137.903 16.4402 137.712 16.7891C137.514 17.1484 137.253 17.4584 136.935 17.7105C136.607 17.9706 136.224 18.1898 135.795 18.3625C135.353 18.5403 134.892 18.6821 134.425 18.7838C133.956 18.8865 133.484 18.958 133.022 18.996C132.556 19.0344 132.126 19.0539 131.745 19.0539Z" fill="#051314"/>
<path d="M87.7764 18.9049L86.9701 16.4018H79.2612L78.4493 18.9049H76.6055L80.4514 7H85.7905L89.6365 18.9049H87.7764ZM79.7115 15.0134H86.516L84.3666 8.28728H81.8932L79.7115 15.0134Z" fill="#051314"/>
<path d="M62.2891 18.9048V7H71.2487C71.6411 7 72.0157 7.07372 72.362 7.21908C72.7087 7.36475 73.0141 7.5682 73.2696 7.82361C73.5247 8.0787 73.7308 8.39227 73.882 8.75548C74.0333 9.1184 74.11 9.51871 74.11 9.9453C74.11 10.5487 74.0102 11.0344 73.8135 11.3888C73.6485 11.6838 73.3428 11.8632 73.0121 11.8632H72.2768V13.2436L73.1109 13.2442C73.546 13.2444 73.9538 13.439 74.2018 13.7647C74.3753 13.9944 74.5119 14.2633 74.6128 14.5706C74.7139 14.8795 74.7652 15.2452 74.7652 15.6572C74.7652 16.106 74.6828 16.5318 74.5204 16.9226C74.3566 17.3167 74.1316 17.666 73.8518 17.961C73.5732 18.2548 73.2446 18.4884 72.875 18.6555C72.5089 18.8209 72.1088 18.9048 71.6855 18.9048H62.2891ZM64.3157 17.6174H70.5935C71.2769 17.6174 71.813 17.4073 72.1872 16.9931C72.553 16.5882 72.7385 16.0878 72.7385 15.5059C72.7385 14.9245 72.553 14.4242 72.1873 14.0189C71.8128 13.6045 71.2766 13.3945 70.5935 13.3945H64.3157V17.6174ZM64.3157 12.0063H70.123C70.7479 12.0063 71.2374 11.8234 71.5778 11.4626C71.9133 11.1068 72.0833 10.6699 72.0833 10.1637C72.0833 9.66215 71.9217 9.22246 71.6028 8.85694C71.2729 8.47893 70.7751 8.28728 70.123 8.28728H64.3157V12.0063Z" fill="#051314"/>
<path d="M11.2872 23.5753C10.8894 23.5753 10.4917 23.4573 10.1446 23.2216L0.601705 16.7359C0.273677 16.5129 0.0802947 16.143 0.0843768 15.7465C0.0884565 15.3499 0.289358 14.9842 0.621782 14.7681L4.71705 12.1053L0.649379 9.39338C0.246283 9.12472 0.00351381 8.67506 3.7816e-05 8.19062C-0.00343817 7.70602 0.232902 7.25284 0.632242 6.97835L9.90204 0.606686C10.2159 0.391053 10.6206 0.366224 10.9582 0.542777C11.2959 0.719023 11.507 1.06523 11.5093 1.44607L11.5475 7.89698C11.5496 8.24809 11.3751 8.57192 11.0809 8.76334L5.93045 12.1122L10.5461 15.1894C11.0034 15.4941 11.5956 15.4958 12.0546 15.1937L21.8047 8.77361C22.0789 8.59292 22.4287 8.5779 22.7176 8.73345C23.0064 8.88916 23.1859 9.1897 23.1859 9.51782V15.4477C23.1859 15.7433 23.0398 16.019 22.7952 16.185L12.4291 23.2221C12.0822 23.4575 11.6847 23.5752 11.2872 23.5753ZM5.32146 12.5082L0.98552 15.3275C0.838671 15.423 0.753432 15.5782 0.751631 15.7532C0.749829 15.9286 0.8319 16.0855 0.976813 16.1841L10.5197 22.6696C10.9857 22.9865 11.5881 22.9864 12.0543 22.67L22.4205 15.6329C22.4819 15.5913 22.5186 15.522 22.5186 15.4477V9.51782C22.5186 9.39721 22.4363 9.33989 22.401 9.32089C22.3656 9.30158 22.2724 9.26464 22.1716 9.33085L12.4215 15.7509C11.7382 16.2011 10.8568 16.1986 10.176 15.7445L5.32146 12.5082ZM10.4825 1.09251C10.4119 1.09251 10.3419 1.11412 10.2801 1.15657L1.01023 7.52824C0.790385 7.67935 0.665393 7.91904 0.667309 8.18586C0.669224 8.45253 0.797588 8.69039 1.01948 8.83813L5.32604 11.7092L10.717 8.20395C10.8199 8.13697 10.8809 8.02372 10.8802 7.90096L10.842 1.45006C10.8412 1.31488 10.7692 1.19672 10.6493 1.13419C10.596 1.1063 10.5391 1.09251 10.4825 1.09251Z" fill="#051314"/>
<path d="M11.6907 15.9453H11.0234V23.3273H11.6907V15.9453Z" fill="#051314"/>
</svg>
