<svg width="437" height="182" viewBox="0 0 437 182" fill="none" xmlns="http://www.w3.org/2000/svg">
<path d="M11.753 181.487H6.57875C4.46304 181.487 2.73828 179.762 2.73828 177.646V83.1061C2.73828 80.9904 4.46304 79.2656 6.57875 79.2656H11.753C13.8688 79.2656 15.5935 80.9904 15.5935 83.1061V177.646C15.5935 179.762 13.8688 181.487 11.753 181.487ZM6.57875 81.7723C5.84286 81.7723 5.24494 82.3702 5.24494 83.1061V177.646C5.24494 178.382 5.84286 178.98 6.57875 178.98H11.753C12.4889 178.98 13.0869 178.382 13.0869 177.646V83.1061C13.0869 82.3702 12.4889 81.7723 11.753 81.7723H6.57875Z" fill="#051314"/>
<path d="M429.964 181.487H424.79C422.674 181.487 420.949 179.762 420.949 177.646V83.1061C420.949 80.9904 422.674 79.2656 424.79 79.2656H429.964C432.08 79.2656 433.804 80.9904 433.804 83.1061V177.646C433.804 179.762 432.08 181.487 429.964 181.487ZM424.778 81.7723C424.042 81.7723 423.444 82.3702 423.444 83.1061V177.646C423.444 178.382 424.042 178.98 424.778 178.98H429.953C430.688 178.98 431.286 178.382 431.286 177.646V83.1061C431.286 82.3702 430.688 81.7723 429.953 81.7723H424.778Z" fill="#051314"/>
<path d="M403.008 181.487C400.893 181.487 399.168 179.762 399.168 177.646V83.1061C399.168 80.9904 400.893 79.2656 403.008 79.2656C405.124 79.2656 406.849 80.9904 406.849 83.1061V177.646C406.849 179.762 405.124 181.487 403.008 181.487ZM403.008 81.7723C402.273 81.7723 401.675 82.3702 401.675 83.1061V177.646C401.675 178.382 402.273 178.98 403.008 178.98C403.744 178.98 404.342 178.382 404.342 177.646V83.1061C404.342 82.3702 403.744 81.7723 403.008 81.7723Z" fill="#051314"/>
<path d="M131.173 181.487C129.057 181.487 127.332 179.762 127.332 177.646V83.1061C127.332 80.9904 129.057 79.2656 131.173 79.2656C133.288 79.2656 135.013 80.9904 135.013 83.1061V177.646C135.013 179.762 133.288 181.487 131.173 181.487ZM131.173 81.7723C130.437 81.7723 129.839 82.3702 129.839 83.1061V177.646C129.839 178.382 130.437 178.98 131.173 178.98C131.908 178.98 132.506 178.382 132.506 177.646V83.1061C132.506 82.3702 131.908 81.7723 131.173 81.7723Z" fill="#051314"/>
<path d="M433.158 72.3894H4.27797C2.16226 72.3894 0.4375 70.6646 0.4375 68.5489V59.8561C0.4375 57.7404 2.16226 56.0156 4.27797 56.0156H433.158C435.273 56.0156 436.998 57.7404 436.998 59.8561V68.5489C436.998 70.6646 435.273 72.3894 433.158 72.3894ZM4.27797 58.5223C3.54207 58.5223 2.94416 59.1202 2.94416 59.8561V68.5489C2.94416 69.2848 3.54207 69.8827 4.27797 69.8827H433.158C433.894 69.8827 434.491 69.2848 434.491 68.5489V59.8561C434.491 59.1202 433.894 58.5223 433.158 58.5223H4.27797Z" fill="#051314"/>
<path d="M193.943 180.337H161.149C159.033 180.337 157.309 178.612 157.309 176.496V83.1061C157.309 80.9904 159.033 79.2656 161.149 79.2656H193.943C196.058 79.2656 197.783 80.9904 197.783 83.1061V176.496C197.783 178.612 196.058 180.337 193.943 180.337ZM161.149 81.7723C160.413 81.7723 159.815 82.3702 159.815 83.1061V176.496C159.815 177.232 160.413 177.83 161.149 177.83H193.943C194.678 177.83 195.276 177.232 195.276 176.496V83.1061C195.276 82.3702 194.678 81.7723 193.943 81.7723H161.149Z" fill="#051314"/>
<path d="M377.414 180.337H269.317C267.201 180.337 265.477 178.612 265.477 176.496V83.1061C265.477 80.9904 267.201 79.2656 269.317 79.2656H377.414C379.529 79.2656 381.254 80.9904 381.254 83.1061V176.496C381.254 178.612 379.529 180.337 377.414 180.337ZM269.317 81.7723C268.581 81.7723 267.983 82.3702 267.983 83.1061V176.496C267.983 177.232 268.581 177.83 269.317 177.83H377.414C378.15 177.83 378.748 177.232 378.748 176.496V83.1061C378.748 82.3702 378.15 81.7723 377.414 81.7723H269.317Z" fill="#051314"/>
<path d="M305.789 48.7715H268.673C266.557 48.7715 264.832 47.0468 264.832 44.9311V4.6061C264.832 2.49039 266.557 0.765625 268.673 0.765625H305.789C307.905 0.765625 309.63 2.49039 309.63 4.6061V44.9311C309.63 47.0468 307.905 48.7715 305.789 48.7715ZM268.673 3.27228C267.937 3.27228 267.339 3.8702 267.339 4.6061V44.9311C267.339 45.667 267.937 46.2649 268.673 46.2649H305.789C306.525 46.2649 307.123 45.667 307.123 44.9311V4.6061C307.123 3.8702 306.525 3.27228 305.789 3.27228H268.673Z" fill="#051314"/>
</svg>
