<svg width="67" height="68" viewBox="0 0 67 68" fill="none" xmlns="http://www.w3.org/2000/svg">
<path d="M32.4849 67.3125C31.3399 67.3125 30.1953 66.9729 29.1965 66.2945L1.73172 47.6285C0.78765 46.9867 0.23109 45.922 0.242839 44.7809C0.25458 43.6394 0.83278 42.587 1.78951 41.9651L13.5758 34.3013L1.86893 26.4965C0.708808 25.7233 0.0101128 24.4291 0.000108835 23.0349C-0.00989515 21.6402 0.670299 20.3359 1.81961 19.546L28.4983 1.20815C29.4016 0.58755 30.5664 0.516093 31.538 1.02422C32.5098 1.53146 33.1175 2.52785 33.1239 3.62393L33.234 22.1898C33.24 23.2003 32.7379 24.1323 31.891 24.6832L17.068 34.3212L30.352 43.1776C31.6682 44.0545 33.3723 44.0593 34.6933 43.1899L62.7544 24.7127C63.5435 24.1927 64.5503 24.1495 65.3817 24.5972C66.2131 25.0453 66.7295 25.9103 66.7295 26.8546V43.9208C66.7295 44.7716 66.3092 45.5652 65.6053 46.0428L35.7711 66.2958C34.7729 66.9733 33.6287 67.3121 32.4849 67.3125ZM15.3153 35.4609L2.83635 43.575C2.41372 43.8498 2.1684 44.2966 2.16321 44.8003C2.15803 45.3049 2.39423 45.7566 2.81129 46.0402L30.2759 64.7057C31.6171 65.6179 33.3508 65.6174 34.6925 64.7071L64.5266 44.4541C64.7035 44.3341 64.809 44.1347 64.809 43.9208V26.8546C64.809 26.5075 64.5723 26.3425 64.4706 26.2878C64.3687 26.2323 64.1005 26.126 63.8104 26.3165L35.7495 44.7937C33.7829 46.0891 31.2461 46.0821 29.2867 44.7752L15.3153 35.4609ZM30.169 2.60637C29.9658 2.60637 29.7642 2.66855 29.5863 2.79074L2.90747 21.1285C2.27475 21.5634 1.91502 22.2533 1.92053 23.0212C1.92604 23.7887 2.29548 24.4732 2.9341 24.8984L15.3285 33.1616L30.8439 23.0733C31.14 22.8805 31.3156 22.5545 31.3135 22.2012L31.2035 3.63539C31.2012 3.24636 30.9939 2.90629 30.649 2.72633C30.4956 2.64605 30.3318 2.60637 30.169 2.60637Z" fill="#EFE8E6"/>
<path d="M33.647 45.3516H31.7266V66.597H33.647V45.3516Z" fill="#EFE8E6"/>
</svg>
