<svg width="67" height="67" viewBox="0 0 67 67" fill="none" xmlns="http://www.w3.org/2000/svg">
<path d="M32.7544 66.625C31.6094 66.625 30.4648 66.2854 29.466 65.607L2.00125 46.941C1.05718 46.2992 0.500621 45.2345 0.51237 44.0934C0.524111 42.9519 1.10231 41.8995 2.05904 41.2776L13.8453 33.6138L2.13846 25.809C0.97834 25.0358 0.279644 23.7416 0.26964 22.3474C0.259636 20.9527 0.93983 19.6484 2.08914 18.8585L28.7679 0.520648C29.6711 -0.0999496 30.8359 -0.171407 31.8076 0.336716C32.7793 0.843956 33.387 1.84035 33.3935 2.93643L33.5035 21.5023C33.5095 22.5128 33.0074 23.4448 32.1605 23.9957L17.3375 33.6337L30.6215 42.4901C31.9377 43.367 33.6418 43.3718 34.9628 42.5024L63.0239 24.0252C63.813 23.5052 64.8198 23.462 65.6512 23.9097C66.4826 24.3578 66.999 25.2228 66.999 26.1671V43.2333C66.999 44.0841 66.5787 44.8777 65.8748 45.3553L36.0407 65.6083C35.0424 66.2858 33.8983 66.6246 32.7544 66.625ZM15.5848 34.7734L3.10588 42.8875C2.68325 43.1623 2.43793 43.6091 2.43274 44.1128C2.42756 44.6174 2.66376 45.0691 3.08082 45.3527L30.5455 64.0182C31.8867 64.9304 33.6203 64.9299 34.962 64.0196L64.7962 43.7666C64.973 43.6466 65.0786 43.4472 65.0786 43.2333V26.1671C65.0786 25.82 64.8419 25.655 64.7401 25.6003C64.6382 25.5448 64.3701 25.4385 64.0799 25.629L36.019 44.1062C34.0524 45.4016 31.5156 45.3946 29.5562 44.0877L15.5848 34.7734ZM30.4385 1.91887C30.2354 1.91887 30.0338 1.98105 29.8558 2.10324L3.177 20.441C2.54428 20.8759 2.18455 21.5658 2.19006 22.3337C2.19558 23.1012 2.56501 23.7857 3.20363 24.2109L15.598 32.4741L31.1134 22.3858C31.4095 22.193 31.5852 21.867 31.5831 21.5137L31.473 2.94789C31.4708 2.55886 31.2634 2.21879 30.9186 2.03883C30.7651 1.95855 30.6013 1.91887 30.4385 1.91887Z" fill="#051314"/>
<path d="M33.9166 44.6641H31.9961V65.9095H33.9166V44.6641Z" fill="#051314"/>
</svg>
