<svg width="196" height="23" viewBox="0 0 196 23" fill="none" xmlns="http://www.w3.org/2000/svg">
<path d="M12.6516 22.499C11.0016 22.499 9.39166 22.2529 7.86661 21.7677C6.3556 21.2869 4.99988 20.5656 3.8372 19.6238C2.68144 18.6882 1.7416 17.5251 1.04375 16.1671C0.351165 14.8204 0 13.245 0 11.4842C0 9.724 0.351169 8.14869 1.04368 6.80181C1.74084 5.44526 2.67998 4.28797 3.83498 3.3619C4.99746 2.43001 6.35864 1.71329 7.88079 1.23165C9.4151 0.746142 11.0202 0.5 12.6516 0.5C13.9369 0.5 15.2627 0.648516 16.592 0.941536C17.9072 1.23179 19.1472 1.69227 20.2773 2.3104C21.3921 2.92036 22.3731 3.72254 23.1932 4.6948C23.8588 5.48467 24.358 6.42333 24.6816 7.49226H21.0509C20.7039 6.76821 20.2704 6.13419 19.7594 5.60387C19.174 4.99722 18.5038 4.49208 17.7672 4.10198C17.0359 3.71465 16.2294 3.43104 15.37 3.25887C14.5278 3.09045 13.654 3.00513 12.7727 3.00513C11.5182 3.00513 10.3388 3.21144 9.26728 3.61827C8.19179 4.02703 7.25147 4.60713 6.47224 5.34251C5.69095 6.08067 5.07055 6.97508 4.62818 8.00099C4.18513 9.02705 3.96041 10.1787 3.96041 11.4236C3.96041 12.6693 4.18512 13.821 4.62832 14.8467C5.06951 15.8705 5.68895 16.7692 6.46907 17.517C7.24947 18.2646 8.19083 18.8509 9.26728 19.2595C10.336 19.6661 11.5155 19.8723 12.7727 19.8723C13.6575 19.8723 14.5314 19.7871 15.3701 19.6189C16.2257 19.4477 17.0303 19.1703 17.7613 18.7942C18.4984 18.4146 19.1681 17.9259 19.7521 17.3417C20.2643 16.8296 20.6988 16.2136 21.0469 15.5067H24.6816C24.358 16.5755 23.8589 17.5143 23.193 18.3046C22.3727 19.277 21.3918 20.0793 20.2773 20.6887C19.148 21.3065 17.9081 21.7672 16.5919 22.0576C15.2631 22.3504 13.9374 22.499 12.6516 22.499Z" fill="#051314"/>
<path d="M41.1777 22.499C39.6088 22.499 38.0452 22.2531 36.5301 21.768C35.0271 21.2865 33.6755 20.5696 32.513 19.6372C31.3571 18.7108 30.4071 17.5472 29.6892 16.1782C28.9779 14.8221 28.6172 13.2427 28.6172 11.4842C28.6172 9.7269 28.9776 8.15338 29.6885 6.80734C30.4057 5.44913 31.3605 4.29032 32.5264 3.36328C33.6998 2.43015 35.0523 1.7126 36.5465 1.23069C38.0497 0.74587 39.6078 0.5 41.1777 0.5C42.7473 0.5 44.3055 0.745866 45.8092 1.23069C47.3016 1.71232 48.6486 2.42932 49.8126 3.3619C50.969 4.2895 51.9193 5.44872 52.6369 6.80734C53.3478 8.15352 53.7083 9.72704 53.7083 11.4842C53.7083 13.242 53.3523 14.8167 52.6505 16.1644C51.9425 17.5227 50.9925 18.6862 49.8271 19.6224C48.6534 20.5651 47.3015 21.2872 45.8092 21.7684C44.3046 22.2531 42.7463 22.499 41.1777 22.499ZM41.1777 3.00513C40.0018 3.00513 38.8766 3.21213 37.8335 3.62034C36.7902 4.02924 35.8671 4.60865 35.0894 5.34251C34.3076 6.08121 33.6869 6.9813 33.2445 8.018C32.802 9.05374 32.5776 10.22 32.5776 11.4842C32.5776 12.7282 32.8018 13.8888 33.2438 14.9339C33.6851 15.9793 34.305 16.8892 35.0862 17.6383C35.8652 18.3846 36.7895 18.9701 37.8335 19.3786C38.8742 19.7867 39.9994 19.9935 41.1777 19.9935C42.3769 19.9935 43.5079 19.7864 44.5392 19.3778C45.5735 18.9689 46.4879 18.3827 47.2568 17.6357C48.0261 16.8874 48.6399 15.9785 49.0816 14.9338C49.5237 13.8867 49.7479 12.7261 49.7479 11.4842C49.7479 10.2219 49.5234 9.05581 49.0809 8.01814C48.6374 6.98019 48.0166 6.08011 47.2359 5.34265C46.4587 4.6092 45.5412 4.03007 44.509 3.62117C43.475 3.21241 42.3543 3.00513 41.1777 3.00513Z" fill="#051314"/>
<path d="M116.826 0.742188H113.199V22.2255H116.826V0.742188Z" fill="#051314"/>
<path d="M140.634 22.2255L135.814 14.3128H127.138V22.2255H123.48V0.742188H138.406C139.289 0.742188 140.122 0.918636 140.884 1.26683C141.653 1.61932 142.339 2.108 142.922 2.71921C143.506 3.33084 143.972 4.06125 144.308 4.89025C144.643 5.71773 144.812 6.61007 144.812 7.54251C144.812 8.79162 144.51 9.96329 143.915 11.0249C143.321 12.0823 142.503 12.9187 141.486 13.5106L139.711 14.525L144.401 22.2255L140.634 22.2255ZM127.138 11.8077H136.89C137.495 11.8077 138.063 11.6886 138.58 11.4538C139.084 11.2247 139.533 10.9156 139.913 10.5352C140.295 10.1529 140.601 9.7011 140.821 9.19236C141.042 8.67836 141.155 8.1233 141.155 7.54251C141.155 6.96394 141.043 6.40555 140.822 5.88257C140.602 5.36152 140.296 4.90325 139.913 4.51993C139.533 4.14007 139.085 3.83101 138.58 3.60146C138.062 3.36638 137.494 3.24732 136.89 3.24732H127.138V11.8077Z" fill="#051314"/>
<path d="M150.398 22.2255V0.742188H168.608V3.24731H154.056V10.1099H167.607V12.6455H154.056V19.7204H168.82V22.2255H150.398Z" fill="#051314"/>
<path d="M184.484 22.499C183.307 22.499 182.061 22.3991 180.78 22.2023C179.525 22.0094 178.342 21.6578 177.265 21.1571C176.206 20.6662 175.278 19.9865 174.504 19.1369C173.885 18.4575 173.447 17.6058 173.199 16.5983H176.988C177.357 17.2533 177.803 17.7998 178.317 18.226C178.897 18.7089 179.555 19.0879 180.271 19.3523C180.969 19.6105 181.718 19.7843 182.497 19.869C183.25 19.9516 184.03 19.9935 184.817 19.9935C185.416 19.9935 186.099 19.9623 186.849 19.9008C187.628 19.8369 188.37 19.6903 189.056 19.4652C189.777 19.2286 190.402 18.8722 190.914 18.4058C191.489 17.8818 191.78 17.1749 191.78 16.3049C191.78 15.4353 191.428 14.734 190.761 14.2765C190.186 13.882 189.424 13.5824 188.497 13.386C187.619 13.1999 186.615 13.0637 185.511 12.9811C184.436 12.901 183.317 12.8094 182.184 12.7088C181.068 12.61 179.966 12.4548 178.908 12.2475C177.884 12.0463 176.956 11.7324 176.149 11.3148C175.38 10.9172 174.757 10.3684 174.298 9.68334C173.849 9.01419 173.621 8.11052 173.621 6.99748C173.621 6.26306 173.773 5.59557 174.073 5.01354C174.384 4.41022 174.807 3.86192 175.331 3.38374C175.868 2.89353 176.491 2.46278 177.181 2.10339C177.884 1.73777 178.632 1.43507 179.402 1.20372C180.179 0.970576 180.973 0.792884 181.762 0.676035C182.549 0.559186 183.291 0.5 183.968 0.5C185.104 0.5 186.302 0.604541 187.528 0.810583C188.734 1.01303 189.878 1.36496 190.928 1.85655C191.959 2.33847 192.869 2.99946 193.634 3.82127C194.233 4.46442 194.686 5.24834 194.986 6.15811H191.32C190.991 5.54731 190.591 5.0383 190.127 4.6417C189.592 4.18565 188.983 3.83054 188.317 3.58578C187.67 3.34848 186.971 3.19001 186.24 3.11465C185.534 3.04191 184.801 3.00513 184.059 3.00513C183.219 3.00513 182.412 3.08022 181.661 3.22818C180.895 3.37932 180.213 3.60542 179.634 3.90051C179.023 4.21165 178.534 4.60879 178.18 5.08103C177.803 5.5841 177.612 6.15742 177.612 6.78508C177.612 7.67147 177.962 8.38722 178.624 8.85503C179.204 9.26351 179.97 9.56497 180.902 9.75096C181.785 9.92782 182.793 10.0434 183.897 10.0946C184.967 10.1448 186.082 10.2159 187.213 10.3058C188.33 10.3947 189.434 10.5352 190.493 10.7232C191.51 10.9041 192.432 11.2157 193.233 11.6493C194.004 12.0662 194.628 12.6394 195.089 13.3528C195.541 14.0547 195.771 15.0071 195.771 16.1833C195.771 17.0325 195.596 17.7824 195.25 18.412C194.894 19.0603 194.422 19.6198 193.848 20.0747C193.257 20.5441 192.565 20.9397 191.791 21.2512C190.993 21.5722 190.162 21.828 189.32 22.0115C188.473 22.1969 187.621 22.3258 186.787 22.3945C185.946 22.4638 185.171 22.499 184.484 22.499Z" fill="#051314"/>
<path d="M105.139 22.2255L103.684 17.7085H89.7729L88.3078 22.2255H84.9805L91.9208 0.742188H101.556L108.496 22.2255H105.139ZM90.5856 15.2031H102.865L98.9861 3.06519H94.5227L90.5856 15.2031Z" fill="#051314"/>
<path d="M59.1445 22.2254V0.742188H75.3129C76.0211 0.742188 76.697 0.875215 77.322 1.13754C77.9476 1.40041 78.4987 1.76756 78.9597 2.22845C79.4201 2.68879 79.792 3.25464 80.0649 3.9101C80.338 4.56501 80.4764 5.2874 80.4764 6.05722C80.4764 7.14619 80.2964 8.02263 79.9413 8.66205C79.6436 9.19457 79.0919 9.51829 78.4951 9.51829H77.1681V12.0093L78.6734 12.0103C79.4587 12.0107 80.1946 12.3619 80.6421 12.9496C80.9552 13.3642 81.2016 13.8494 81.3837 14.404C81.5661 14.9614 81.6587 15.6213 81.6587 16.3648C81.6587 17.1747 81.5101 17.943 81.217 18.6484C80.9214 19.3594 80.5154 19.9899 80.0104 20.5223C79.5077 21.0523 78.9146 21.4739 78.2476 21.7755C77.5871 22.0739 76.865 22.2254 76.1012 22.2254H59.1445ZM62.8017 19.9021H74.1306C75.3638 19.9021 76.3313 19.523 77.0065 18.7755C77.6666 18.0448 78.0014 17.1418 78.0014 16.0918C78.0014 15.0425 77.6667 14.1397 77.0066 13.4083C76.3308 12.6606 75.3633 12.2816 74.1306 12.2816H62.8017V19.9021ZM62.8017 9.77646H73.2816C74.4092 9.77646 75.2925 9.44638 75.9069 8.79535C76.5123 8.1533 76.8191 7.36481 76.8191 6.45132C76.8191 5.54626 76.5273 4.75279 75.9519 4.09318C75.3566 3.41104 74.4582 3.06519 73.2816 3.06519H62.8017V9.77646Z" fill="#051314"/>
</svg>
