<svg width="196" height="22" viewBox="0 0 196 22" fill="none" xmlns="http://www.w3.org/2000/svg">
<path d="M12.8821 21.999C11.2321 21.999 9.62213 21.7529 8.09708 21.2677C6.58606 20.7869 5.23035 20.0656 4.06767 19.1238C2.91191 18.1882 1.97207 17.0251 1.27422 15.6671C0.581633 14.3204 0.230469 12.745 0.230469 10.9842C0.230469 9.224 0.581638 7.64869 1.27415 6.30181C1.97131 4.94526 2.91045 3.78797 4.06545 2.8619C5.22792 1.93001 6.58911 1.21329 8.11126 0.731653C9.64557 0.246142 11.2507 0 12.8821 0C14.1674 0 15.4932 0.148516 16.8225 0.441536C18.1377 0.73179 19.3777 1.19227 20.5077 1.8104C21.6226 2.42036 22.6036 3.22254 23.4236 4.1948C24.0893 4.98467 24.5884 5.92333 24.912 6.99226H21.2814C20.9343 6.26821 20.5009 5.63419 19.9899 5.10387C19.4044 4.49722 18.7343 3.99208 17.9976 3.60198C17.2663 3.21465 16.4599 2.93104 15.6005 2.75887C14.7582 2.59045 13.8844 2.50513 13.0032 2.50513C11.7486 2.50513 10.5692 2.71144 9.49775 3.11827C8.42226 3.52703 7.48193 4.10713 6.70271 4.84251C5.92142 5.58067 5.30102 6.47508 4.85865 7.50099C4.4156 8.52705 4.19088 9.67867 4.19088 10.9236C4.19088 12.1693 4.41559 13.321 4.85879 14.3467C5.29997 15.3705 5.91941 16.2692 6.69954 17.017C7.47993 17.7646 8.42129 18.3509 9.49775 18.7595C10.5665 19.1661 11.746 19.3723 13.0032 19.3723C13.8879 19.3723 14.7618 19.2871 15.6006 19.1189C16.4562 18.9477 17.2608 18.6703 17.9918 18.2942C18.7289 17.9146 19.3986 17.4259 19.9826 16.8417C20.4947 16.3296 20.9293 15.7136 21.2773 15.0067H24.912C24.5885 16.0755 24.0893 17.0143 23.4235 17.8046C22.6032 18.777 21.6222 19.5793 20.5077 20.1887C19.3785 20.8065 18.1385 21.2672 16.8224 21.5576C15.4936 21.8504 14.1678 21.999 12.8821 21.999Z" fill="#EFE8E6"/>
<path d="M41.4081 21.999C39.8393 21.999 38.2756 21.7531 36.7606 21.268C35.2576 20.7865 33.906 20.0696 32.7435 19.1372C31.5876 18.2108 30.6376 17.0472 29.9197 15.6782C29.2084 14.3221 28.8477 12.7427 28.8477 10.9842C28.8477 9.2269 29.2081 7.65338 29.9189 6.30734C30.6362 4.94913 31.591 3.79032 32.7568 2.86328C33.9302 1.93015 35.2828 1.2126 36.777 0.730687C38.2802 0.24587 39.8383 0 41.4081 0C42.9778 0 44.536 0.245866 46.0396 0.730687C47.5321 1.21232 48.8791 1.92932 50.0431 2.8619C51.1994 3.7895 52.1498 4.94872 52.8673 6.30734C53.5782 7.65352 53.9387 9.22704 53.9387 10.9842C53.9387 12.742 53.5828 14.3167 52.881 15.6644C52.1729 17.0227 51.2229 18.1862 50.0576 19.1224C48.8838 20.0651 47.532 20.7872 46.0396 21.2684C44.5351 21.7531 42.9768 21.999 41.4081 21.999ZM41.4081 2.50513C40.2323 2.50513 39.1071 2.71213 38.064 3.12034C37.0207 3.52924 36.0976 4.10865 35.3199 4.84251C34.5381 5.58121 33.9174 6.4813 33.4749 7.518C33.0325 8.55374 32.8081 9.72001 32.8081 10.9842C32.8081 12.2282 33.0322 13.3888 33.4742 14.4339C33.9156 15.4793 34.5355 16.3892 35.3167 17.1383C36.0957 17.8846 37.0199 18.4701 38.064 18.8786C39.1047 19.2867 40.2299 19.4935 41.4081 19.4935C42.6073 19.4935 43.7383 19.2864 44.7697 18.8778C45.8039 18.4689 46.7184 17.8827 47.4873 17.1357C48.2566 16.3874 48.8704 15.4785 49.3121 14.4338C49.7542 13.3867 49.9783 12.2261 49.9783 10.9842C49.9783 9.72195 49.7539 8.55581 49.3113 7.51814C48.8679 6.48019 48.2471 5.58011 47.4664 4.84265C46.6891 4.1092 45.7717 3.53007 44.7394 3.12117C43.7054 2.71241 42.5848 2.50513 41.4081 2.50513Z" fill="#EFE8E6"/>
<path d="M117.057 0.242188H113.43V21.7255H117.057V0.242188Z" fill="#EFE8E6"/>
<path d="M140.864 21.7255L136.044 13.8128H127.368V21.7255H123.711V0.242188H138.636C139.519 0.242188 140.353 0.418636 141.114 0.766833C141.883 1.11932 142.569 1.608 143.153 2.21921C143.737 2.83084 144.203 3.56125 144.538 4.39025C144.873 5.21773 145.043 6.11007 145.043 7.04251C145.043 8.29162 144.741 9.46329 144.145 10.5249C143.551 11.5823 142.734 12.4187 141.717 13.0106L139.941 14.025L144.631 21.7255L140.864 21.7255ZM127.368 11.3077H137.12C137.725 11.3077 138.293 11.1886 138.81 10.9538C139.314 10.7247 139.763 10.4156 140.143 10.0352C140.526 9.65287 140.831 9.2011 141.051 8.69236C141.273 8.17836 141.385 7.6233 141.385 7.04251C141.385 6.46394 141.274 5.90555 141.053 5.38257C140.833 4.86152 140.527 4.40325 140.143 4.01993C139.764 3.64007 139.315 3.33101 138.81 3.10146C138.292 2.86638 137.724 2.74732 137.12 2.74732H127.368V11.3077Z" fill="#EFE8E6"/>
<path d="M150.629 21.7255V0.242188H168.838V2.74731H154.286V9.60986H167.838V12.1455H154.286V19.2204H169.05V21.7255H150.629Z" fill="#EFE8E6"/>
<path d="M184.714 21.999C183.538 21.999 182.291 21.8991 181.011 21.7023C179.755 21.5094 178.573 21.1578 177.495 20.6571C176.437 20.1662 175.508 19.4865 174.734 18.6369C174.115 17.9575 173.678 17.1058 173.43 16.0983H177.219C177.587 16.7533 178.033 17.2998 178.547 17.726C179.128 18.2089 179.785 18.5879 180.501 18.8523C181.2 19.1105 181.949 19.2843 182.728 19.369C183.48 19.4516 184.261 19.4935 185.048 19.4935C185.646 19.4935 186.33 19.4623 187.08 19.4008C187.858 19.3369 188.601 19.1903 189.287 18.9652C190.008 18.7286 190.632 18.3722 191.144 17.9058C191.719 17.3818 192.011 16.6749 192.011 15.8049C192.011 14.9353 191.659 14.234 190.992 13.7765C190.417 13.382 189.655 13.0824 188.727 12.886C187.849 12.6999 186.845 12.5637 185.742 12.4811C184.667 12.401 183.548 12.3094 182.415 12.2088C181.298 12.11 180.196 11.9548 179.139 11.7475C178.115 11.5463 177.186 11.2324 176.38 10.8148C175.611 10.4172 174.988 9.86839 174.528 9.18334C174.079 8.51419 173.851 7.61052 173.851 6.49748C173.851 5.76306 174.004 5.09557 174.304 4.51354C174.614 3.91022 175.038 3.36192 175.561 2.88374C176.099 2.39353 176.721 1.96278 177.412 1.60339C178.115 1.23777 178.862 0.935068 179.632 0.70372C180.409 0.470576 181.204 0.292884 181.993 0.176035C182.779 0.0591862 183.521 0 184.199 0C185.335 0 186.532 0.104541 187.758 0.310583C188.964 0.513027 190.108 0.864957 191.159 1.35655C192.189 1.83847 193.099 2.49946 193.865 3.32127C194.463 3.96442 194.917 4.74834 195.216 5.65811H191.551C191.222 5.04731 190.821 4.5383 190.357 4.1417C189.823 3.68565 189.214 3.33054 188.547 3.08578C187.9 2.84848 187.201 2.69001 186.47 2.61465C185.765 2.54191 185.031 2.50513 184.29 2.50513C183.449 2.50513 182.643 2.58022 181.891 2.72818C181.126 2.87932 180.444 3.10542 179.864 3.40051C179.254 3.71165 178.764 4.10879 178.41 4.58103C178.033 5.0841 177.842 5.65742 177.842 6.28508C177.842 7.17147 178.192 7.88722 178.855 8.35503C179.434 8.76351 180.2 9.06497 181.132 9.25096C182.015 9.42782 183.023 9.54343 184.127 9.5946C185.197 9.64479 186.313 9.71587 187.443 9.80575C188.56 9.89467 189.664 10.0352 190.724 10.2232C191.74 10.4041 192.662 10.7157 193.464 11.1493C194.234 11.5662 194.858 12.1394 195.319 12.8528C195.772 13.5547 196.002 14.5071 196.002 15.6833C196.002 16.5325 195.826 17.2824 195.48 17.912C195.124 18.5603 194.653 19.1198 194.079 19.5747C193.488 20.0441 192.796 20.4397 192.021 20.7512C191.224 21.0722 190.392 21.328 189.55 21.5115C188.703 21.6969 187.851 21.8258 187.017 21.8945C186.176 21.9638 185.402 21.999 184.714 21.999Z" fill="#EFE8E6"/>
<path d="M105.37 21.7255L103.915 17.2085H90.0034L88.5383 21.7255H85.2109L92.1513 0.242188H101.786L108.726 21.7255H105.37ZM90.8161 14.7031H103.095L99.2165 2.56519H94.7531L90.8161 14.7031Z" fill="#EFE8E6"/>
<path d="M59.375 21.7254V0.242188H75.5434C76.2515 0.242188 76.9275 0.375215 77.5525 0.637539C78.1781 0.900413 78.7292 1.26756 79.1902 1.72845C79.6506 2.18879 80.0225 2.75464 80.2954 3.4101C80.5685 4.06501 80.7069 4.7874 80.7069 5.55722C80.7069 6.64619 80.5268 7.52263 80.1717 8.16205C79.8741 8.69457 79.3224 9.01829 78.7256 9.01829H77.3986V11.5093L78.9039 11.5103C79.6891 11.5107 80.4251 11.8619 80.8725 12.4496C81.1857 12.8642 81.4321 13.3494 81.6142 13.904C81.7966 14.4614 81.8892 15.1213 81.8892 15.8648C81.8892 16.6747 81.7405 17.443 81.4475 18.1484C81.1519 18.8594 80.7459 19.4899 80.2409 20.0223C79.7382 20.5523 79.1451 20.9739 78.4781 21.2755C77.8176 21.5739 77.0954 21.7254 76.3316 21.7254H59.375ZM63.0322 19.4021H74.3611C75.5942 19.4021 76.5618 19.023 77.2369 18.2755C77.8971 17.5448 78.2319 16.6418 78.2319 15.5918C78.2319 14.5425 77.8972 13.6397 77.2371 12.9083C76.5613 12.1606 75.5938 11.7816 74.3611 11.7816H63.0322V19.4021ZM63.0322 9.27646H73.512C74.6397 9.27646 75.5229 8.94638 76.1373 8.29535C76.7427 7.6533 77.0496 6.86481 77.0496 5.95132C77.0496 5.04626 76.7578 4.25279 76.1823 3.59318C75.587 2.91104 74.6887 2.56519 73.512 2.56519H63.0322V9.27646Z" fill="#EFE8E6"/>
</svg>
