<svg width="128" height="109" viewBox="0 0 128 109" fill="none" xmlns="http://www.w3.org/2000/svg">
<path d="M33.789 105.382C32.8712 105.382 31.9533 105.101 31.1784 104.535L3.50508 84.3752C3.05989 84.051 2.80157 83.5343 2.81256 82.9847C2.82355 82.4351 3.10386 81.9239 3.56004 81.6217L14.9921 74.2568L1.64737 65.0122C1.19119 64.6989 0.921875 64.1823 0.921875 63.6272C0.921875 63.072 1.20218 62.5554 1.65836 62.2476L92.1585 0.943186C92.7356 0.552957 93.4776 0.514483 94.0932 0.855247C94.7032 1.19051 95.0715 1.83357 95.055 2.53158L94.9121 22.6366C94.8956 23.2412 94.5878 23.7963 94.0877 24.1316L16.2562 74.2733L31.008 84.4852C31.9149 85.1117 33.0416 85.3096 33.6901 85.1777C33.899 85.1337 33.9759 85.0733 33.9924 85.0513L34.0309 84.9908L34.0968 84.9414L123.206 24.8626C123.97 24.3624 124.905 24.313 125.713 24.7197C126.521 25.1264 127.032 25.9123 127.087 26.8137L126.57 45.1765C126.57 45.9349 126.191 46.6439 125.553 47.0727L36.2678 104.623C35.5203 105.123 34.6574 105.376 33.7945 105.376L33.789 105.382ZM15.6132 74.6855L3.93928 82.2042C3.67546 82.3801 3.51607 82.6714 3.51058 82.9957C3.50508 83.32 3.65348 83.6168 3.9118 83.8036L31.5851 103.969C32.8547 104.887 34.575 104.92 35.8776 104.041L125.163 46.4901C125.597 46.1988 125.861 45.6986 125.861 45.1655L126.378 26.8192C126.339 26.1981 125.971 25.632 125.388 25.3407C124.806 25.0439 124.135 25.0824 123.586 25.4397L34.5365 85.4855C34.3991 85.6668 34.1683 85.7933 33.855 85.8592C33.0855 86.0241 31.7445 85.8482 30.6068 85.0623L15.6132 74.6855ZM92.5487 1.52578L2.05409 62.8247C1.78478 63.0061 1.62539 63.3029 1.62539 63.6272C1.62539 63.9569 1.77928 64.2482 2.04859 64.4351L15.6352 73.8391L93.6974 23.549C93.9997 23.3456 94.1921 22.9994 94.2031 22.6256L94.346 2.52059C94.357 2.0699 94.1371 1.67967 93.7469 1.47082C93.3622 1.25647 92.9115 1.27845 92.5487 1.52578Z" fill="#051314"/>
<path d="M95.5823 108.625C94.3181 108.625 93.0485 108.24 91.9768 107.471L32.9258 64.5623L32.9368 41.5938L93.2959 86.3547C94.2797 87.0252 95.5933 87.0747 96.6375 86.4701L124.036 68.558C124.52 68.2447 125.108 68.2173 125.619 68.4811C126.13 68.7504 126.443 69.2505 126.46 69.8276L125.976 88.9489C125.993 89.482 125.712 90.0041 125.245 90.3009L99.0449 107.57C98.0006 108.279 96.7914 108.631 95.5768 108.631L95.5823 108.625ZM33.6293 64.205L92.389 106.905C94.2467 108.235 96.764 108.268 98.6601 106.982L124.871 89.7018C125.135 89.537 125.289 89.2457 125.278 88.9434L125.762 69.8221C125.751 69.5254 125.58 69.245 125.3 69.0967C125.02 68.9483 124.69 68.9647 124.426 69.1406L97.0113 87.0582C95.7197 87.8057 94.1148 87.7452 92.8946 86.9208L33.6403 42.9843L33.6293 64.205Z" fill="#051314"/>
<path d="M94.4939 66.6721C94.318 66.6721 94.1531 66.5621 94.0212 66.4742L63.6328 43.5002V20.7734L94.9281 44.2696V65.7267C94.9226 65.8421 94.9226 65.9411 94.9281 66.0235C94.9281 66.2434 94.9281 66.4907 94.6972 66.6226C94.6313 66.6611 94.5653 66.6721 94.4994 66.6721H94.4939ZM64.3308 43.1539L94.2246 65.7487C94.2246 65.7487 94.2246 65.7102 94.2246 65.6937V44.6159L64.3308 22.175V43.1484V43.1539Z" fill="#051314"/>
<mask id="path-4-inside-1_600_3824" fill="white">
<path d="M64.6723 65.4199H63.9688V86.0031H64.6723V65.4199Z"/>
</mask>
<path d="M64.6723 65.4199H63.9688V86.0031H64.6723V65.4199Z" fill="#051314"/>
<path d="M63.9688 65.4199V64.4199H62.9688V65.4199H63.9688ZM64.6723 65.4199H65.6723V64.4199H64.6723V65.4199ZM64.6723 86.0031V87.0031H65.6723V86.0031H64.6723ZM63.9688 86.0031H62.9688V87.0031H63.9688V86.0031ZM63.9688 65.4199V66.4199H64.6723V65.4199V64.4199H63.9688V65.4199ZM64.6723 65.4199H63.6723V86.0031H64.6723H65.6723V65.4199H64.6723ZM64.6723 86.0031V85.0031H63.9688V86.0031V87.0031H64.6723V86.0031ZM63.9688 86.0031H64.9688V65.4199H63.9688H62.9688V86.0031H63.9688Z" fill="black" mask="url(#path-4-inside-1_600_3824)"/>
<path d="M33.9691 85.5898H33.2656V105.184H33.9691V85.5898Z" fill="#051314"/>
<path d="M94.2488 87.6911L94.1211 108.016L94.8246 108.02L94.9523 87.6956L94.2488 87.6911Z" fill="#051314"/>
</svg>
