<svg width="127" height="108" viewBox="0 0 127 108" fill="none" xmlns="http://www.w3.org/2000/svg">
<mask id="path-1-inside-1_84_3" fill="white">
<path d="M33.289 104.757C32.3712 104.757 31.4533 104.476 30.6784 103.91L3.00508 83.7502C2.55989 83.426 2.30157 82.9093 2.31256 82.3597C2.32355 81.8101 2.60386 81.2989 3.06004 80.9967L14.4921 73.6318L1.14737 64.3872C0.691188 64.0739 0.421875 63.5573 0.421875 63.0022C0.421875 62.447 0.70218 61.9304 1.15836 61.6226L91.6585 0.318186C92.2356 -0.0720433 92.9776 -0.110517 93.5932 0.230247C94.2032 0.565514 94.5715 1.20857 94.555 1.90658L94.4121 22.0116C94.3956 22.6162 94.0878 23.1713 93.5877 23.5066L15.7562 73.6483L30.508 83.8602C31.4149 84.4867 32.5416 84.6846 33.1901 84.5527C33.399 84.5087 33.4759 84.4483 33.4924 84.4263L33.5309 84.3658L33.5968 84.3164L122.706 24.2376C123.47 23.7374 124.405 23.688 125.213 24.0947C126.021 24.5014 126.532 25.2873 126.587 26.1887L126.07 44.5515C126.07 45.3099 125.691 46.0189 125.053 46.4476L35.7678 103.998C35.0203 104.498 34.1574 104.751 33.2945 104.751L33.289 104.757ZM15.1132 74.0605L3.43928 81.5792C3.17546 81.7551 3.01607 82.0464 3.01058 82.3707C3.00508 82.695 3.15348 82.9918 3.4118 83.1786L31.0851 103.344C32.3547 104.262 34.075 104.295 35.3776 103.416L124.663 45.8651C125.097 45.5738 125.361 45.0736 125.361 44.5405L125.878 26.1942C125.839 25.5731 125.471 25.007 124.888 24.7157C124.306 24.4189 123.635 24.4574 123.086 24.8147L34.0365 84.8605C33.8991 85.0418 33.6683 85.1683 33.355 85.2342C32.5855 85.3991 31.2445 85.2232 30.1068 84.4373L15.1132 74.0605ZM92.0487 0.900781L1.55409 62.1997C1.28478 62.3811 1.12539 62.6779 1.12539 63.0022C1.12539 63.3319 1.27928 63.6232 1.54859 63.8101L15.1352 73.2141L93.1974 22.924C93.4997 22.7206 93.6921 22.3744 93.7031 22.0006L93.846 1.89559C93.857 1.4449 93.6371 1.05467 93.2469 0.845819C92.8622 0.631468 92.4115 0.653453 92.0487 0.900781Z"/>
</mask>
<path d="M33.289 104.757C32.3712 104.757 31.4533 104.476 30.6784 103.91L3.00508 83.7502C2.55989 83.426 2.30157 82.9093 2.31256 82.3597C2.32355 81.8101 2.60386 81.2989 3.06004 80.9967L14.4921 73.6318L1.14737 64.3872C0.691188 64.0739 0.421875 63.5573 0.421875 63.0022C0.421875 62.447 0.70218 61.9304 1.15836 61.6226L91.6585 0.318186C92.2356 -0.0720433 92.9776 -0.110517 93.5932 0.230247C94.2032 0.565514 94.5715 1.20857 94.555 1.90658L94.4121 22.0116C94.3956 22.6162 94.0878 23.1713 93.5877 23.5066L15.7562 73.6483L30.508 83.8602C31.4149 84.4867 32.5416 84.6846 33.1901 84.5527C33.399 84.5087 33.4759 84.4483 33.4924 84.4263L33.5309 84.3658L33.5968 84.3164L122.706 24.2376C123.47 23.7374 124.405 23.688 125.213 24.0947C126.021 24.5014 126.532 25.2873 126.587 26.1887L126.07 44.5515C126.07 45.3099 125.691 46.0189 125.053 46.4476L35.7678 103.998C35.0203 104.498 34.1574 104.751 33.2945 104.751L33.289 104.757ZM15.1132 74.0605L3.43928 81.5792C3.17546 81.7551 3.01607 82.0464 3.01058 82.3707C3.00508 82.695 3.15348 82.9918 3.4118 83.1786L31.0851 103.344C32.3547 104.262 34.075 104.295 35.3776 103.416L124.663 45.8651C125.097 45.5738 125.361 45.0736 125.361 44.5405L125.878 26.1942C125.839 25.5731 125.471 25.007 124.888 24.7157C124.306 24.4189 123.635 24.4574 123.086 24.8147L34.0365 84.8605C33.8991 85.0418 33.6683 85.1683 33.355 85.2342C32.5855 85.3991 31.2445 85.2232 30.1068 84.4373L15.1132 74.0605ZM92.0487 0.900781L1.55409 62.1997C1.28478 62.3811 1.12539 62.6779 1.12539 63.0022C1.12539 63.3319 1.27928 63.6232 1.54859 63.8101L15.1352 73.2141L93.1974 22.924C93.4997 22.7206 93.6921 22.3744 93.7031 22.0006L93.846 1.89559C93.857 1.4449 93.6371 1.05467 93.2469 0.845819C92.8622 0.631468 92.4115 0.653453 92.0487 0.900781Z" fill="#051314"/>
<path d="M33.289 104.757V107.757H34.5324L35.4112 106.877L33.289 104.757ZM30.6784 103.91L32.448 101.488L32.4448 101.485L30.6784 103.91ZM3.00508 83.7502L4.77154 81.3255L4.77138 81.3253L3.00508 83.7502ZM3.06004 80.9967L1.43532 78.4747L1.41904 78.4852L1.4029 78.4959L3.06004 80.9967ZM14.4921 73.6318L16.1168 76.1537L19.891 73.7223L16.2005 71.1657L14.4921 73.6318ZM1.14737 64.3872L2.85575 61.9211L2.84569 61.9142L1.14737 64.3872ZM1.15836 61.6226L2.83627 64.1095L2.84087 64.1064L1.15836 61.6226ZM91.6585 0.318186L89.9781 -2.16699L89.976 -2.1656L91.6585 0.318186ZM93.5932 0.230247L92.1402 2.85494L92.1483 2.85939L93.5932 0.230247ZM94.555 1.90658L91.5558 1.83574L91.5553 1.86049L91.5551 1.88526L94.555 1.90658ZM94.4121 22.0116L97.411 22.0934L97.4118 22.0632L97.412 22.0329L94.4121 22.0116ZM93.5877 23.5066L95.2124 26.0285L95.2354 26.0137L95.2581 25.9985L93.5877 23.5066ZM15.7562 73.6483L14.1315 71.1263L10.356 73.5586L14.0487 76.1149L15.7562 73.6483ZM30.508 83.8602L28.8004 86.3268L28.8027 86.3284L30.508 83.8602ZM33.1901 84.5527L33.788 87.4925L33.7981 87.4904L33.8081 87.4883L33.1901 84.5527ZM33.4924 84.4263L35.8924 86.2263L35.9615 86.1341L36.0234 86.037L33.4924 84.4263ZM33.5309 84.3658L31.7309 81.9658L31.2935 82.2938L30.9999 82.7551L33.5309 84.3658ZM33.5968 84.3164L31.9198 81.8289L31.8572 81.8711L31.7969 81.9163L33.5968 84.3164ZM122.706 24.2376L121.063 21.7276L121.046 21.7388L121.029 21.7501L122.706 24.2376ZM126.587 26.1887L129.586 26.2731L129.589 26.1395L129.581 26.0061L126.587 26.1887ZM126.07 44.5515L123.071 44.4671L123.07 44.5093V44.5515H126.07ZM125.053 46.4476L126.679 48.9692L126.703 48.9534L126.727 48.9372L125.053 46.4476ZM35.7678 103.998L34.1425 101.477L34.1209 101.491L34.0995 101.505L35.7678 103.998ZM33.2945 104.751V101.751H32.0512L31.1724 102.631L33.2945 104.751ZM15.1132 74.0605L16.8204 71.5936L15.1731 70.4535L13.4887 71.5383L15.1132 74.0605ZM3.43928 81.5792L1.81485 79.0571L1.79491 79.0699L1.77518 79.0831L3.43928 81.5792ZM3.4118 83.1786L5.17859 80.7541L5.17016 80.748L3.4118 83.1786ZM31.0851 103.344L29.3183 105.769L29.3275 105.775L31.0851 103.344ZM35.3776 103.416L33.7523 100.894L33.7255 100.911L33.699 100.929L35.3776 103.416ZM124.663 45.8651L126.288 48.3866L126.312 48.3717L126.334 48.3563L124.663 45.8651ZM125.361 44.5405L122.362 44.456L122.361 44.4982V44.5405H125.361ZM125.878 26.1942L128.877 26.2787L128.88 26.1436L128.872 26.0087L125.878 26.1942ZM124.888 24.7157L123.527 27.3889L123.537 27.394L123.547 27.399L124.888 24.7157ZM123.086 24.8147L121.451 22.2993L121.429 22.3132L121.408 22.3273L123.086 24.8147ZM34.0365 84.8605L32.3593 82.3731L31.9462 82.6517L31.6453 83.0489L34.0365 84.8605ZM33.355 85.2342L32.737 82.2985L32.7264 82.3008L33.355 85.2342ZM30.1068 84.4373L28.3995 86.9041L28.4016 86.9056L30.1068 84.4373ZM92.0487 0.900781L93.7312 3.3846L93.7388 3.37946L92.0487 0.900781ZM1.55409 62.1997L3.2299 64.688L3.23656 64.6835L1.55409 62.1997ZM1.54859 63.8101L-0.161653 66.2749L-0.158779 66.2768L1.54859 63.8101ZM15.1352 73.2141L13.4278 75.6808L15.0754 76.8212L16.7599 75.736L15.1352 73.2141ZM93.1974 22.924L94.8222 25.4459L94.8472 25.4298L94.872 25.4132L93.1974 22.924ZM93.7031 22.0006L96.7018 22.0888L96.7028 22.0554L96.703 22.0219L93.7031 22.0006ZM93.846 1.89559L90.8469 1.82244L90.8463 1.84835L90.8461 1.87427L93.846 1.89559ZM93.2469 0.845819L91.7868 3.46652L91.8089 3.47886L91.8313 3.49081L93.2469 0.845819ZM33.289 104.757V101.757C32.9803 101.757 32.6878 101.663 32.448 101.488L30.6784 103.91L28.9087 106.333C30.2188 107.29 31.7621 107.757 33.289 107.757V104.757ZM30.6784 103.91L32.4448 101.485L4.77154 81.3255L3.00508 83.7502L1.23862 86.175L28.9119 106.335L30.6784 103.91ZM3.00508 83.7502L4.77138 81.3253C5.1117 81.5732 5.32074 81.9809 5.31196 82.4197L2.31256 82.3597L-0.686838 82.2997C-0.717598 83.8377 0.00808416 85.2787 1.23879 86.1752L3.00508 83.7502ZM2.31256 82.3597L5.31196 82.4197C5.30337 82.8493 5.08637 83.2528 4.71718 83.4974L3.06004 80.9967L1.4029 78.4959C0.121346 79.3451 -0.656261 80.7709 -0.686838 82.2997L2.31256 82.3597ZM3.06004 80.9967L4.68477 83.5186L16.1168 76.1537L14.4921 73.6318L12.8674 71.1098L1.43532 78.4747L3.06004 80.9967ZM14.4921 73.6318L16.2005 71.1657L2.85574 61.9211L1.14737 64.3872L-0.560998 66.8533L12.7837 76.0978L14.4921 73.6318ZM1.14737 64.3872L2.84569 61.9142C3.21374 62.167 3.42188 62.5803 3.42188 63.0022H0.421875H-2.57812C-2.57812 64.5342 -1.83136 65.9809 -0.550951 66.8602L1.14737 64.3872ZM0.421875 63.0022H3.42188C3.42188 63.4604 3.19319 63.8687 2.83627 64.1095L1.15836 61.6226L-0.51954 59.1357C-1.78883 59.9921 -2.57812 61.4337 -2.57812 63.0022H0.421875ZM1.15836 61.6226L2.84087 64.1064L93.341 2.80197L91.6585 0.318186L89.976 -2.1656L-0.524141 59.1388L1.15836 61.6226ZM91.6585 0.318186L93.339 2.80336C92.9915 3.03829 92.5233 3.06696 92.1402 2.85493L93.5932 0.230247L95.0461 -2.39443C93.4319 -3.28799 91.4797 -3.18238 89.9781 -2.16699L91.6585 0.318186ZM93.5932 0.230247L92.1483 2.85939C91.7701 2.65157 91.5461 2.24948 91.5558 1.83574L94.555 1.90658L97.5542 1.97743C97.5969 0.167654 96.6364 -1.52054 95.038 -2.3989L93.5932 0.230247ZM94.555 1.90658L91.5551 1.88526L91.4122 21.9903L94.4121 22.0116L97.412 22.0329L97.5549 1.92791L94.555 1.90658ZM94.4121 22.0116L91.4132 21.9298C91.4233 21.5596 91.6136 21.2182 91.9173 21.0147L93.5877 23.5066L95.2581 25.9985C96.5621 25.1244 97.3679 23.6728 97.411 22.0934L94.4121 22.0116ZM93.5877 23.5066L91.9629 20.9846L14.1315 71.1263L15.7562 73.6483L17.381 76.1702L95.2124 26.0285L93.5877 23.5066ZM15.7562 73.6483L14.0487 76.1149L28.8004 86.3268L30.508 83.8602L32.2155 81.3935L17.4638 71.1816L15.7562 73.6483ZM30.508 83.8602L28.8027 86.3284C30.279 87.3483 32.2255 87.8103 33.788 87.4925L33.1901 84.5527L32.5922 81.6129C32.7244 81.586 32.7872 81.5925 32.764 81.5915C32.7493 81.5908 32.7015 81.5866 32.6288 81.5696C32.4737 81.5333 32.3213 81.4666 32.2133 81.392L30.508 83.8602ZM33.1901 84.5527L33.8081 87.4883C34.1039 87.4261 34.4225 87.3284 34.7394 87.1723C34.9763 87.0555 35.4781 86.7787 35.8924 86.2263L33.4924 84.4263L31.0924 82.6263C31.3235 82.3181 31.561 82.1277 31.6858 82.0356C31.8371 81.9239 31.9761 81.845 32.0874 81.7902C32.3095 81.6808 32.4852 81.6353 32.5721 81.617L33.1901 84.5527ZM33.4924 84.4263L36.0234 86.037L36.0618 85.9765L33.5309 84.3658L30.9999 82.7551L30.9615 82.8156L33.4924 84.4263ZM33.5309 84.3658L35.3308 86.7658L35.3968 86.7164L33.5968 84.3164L31.7969 81.9163L31.7309 81.9658L33.5309 84.3658ZM33.5968 84.3164L35.2739 86.8038L124.384 26.725L122.706 24.2376L121.029 21.7501L31.9198 81.8289L33.5968 84.3164ZM122.706 24.2376L124.35 26.7475C124.296 26.7829 124.212 26.8157 124.111 26.8214C124.009 26.827 123.923 26.804 123.864 26.7743L125.213 24.0947L126.562 21.415C124.801 20.5286 122.726 20.6391 121.063 21.7276L122.706 24.2376ZM125.213 24.0947L123.864 26.7743C123.796 26.7404 123.726 26.6811 123.672 26.5992C123.619 26.5181 123.596 26.4356 123.592 26.3713L126.587 26.1887L129.581 26.0061C129.462 24.0531 128.336 22.3083 126.562 21.415L125.213 24.0947ZM126.587 26.1887L123.588 26.1043L123.071 44.4671L126.07 44.5515L129.069 44.6358L129.586 26.2731L126.587 26.1887ZM126.07 44.5515H123.07C123.07 44.2997 123.197 44.0804 123.379 43.9581L125.053 46.4476L126.727 48.9372C128.184 47.9575 129.07 46.3201 129.07 44.5515H126.07ZM125.053 46.4476L123.428 43.9261L34.1425 101.477L35.7678 103.998L37.3932 106.52L126.679 48.9692L125.053 46.4476ZM35.7678 103.998L34.0995 101.505C33.8527 101.67 33.572 101.751 33.2945 101.751V104.751V107.751C34.7429 107.751 36.1879 107.327 37.4362 106.492L35.7678 103.998ZM33.2945 104.751L31.1724 102.631L31.1669 102.636L33.289 104.757L35.4112 106.877L35.4167 106.872L33.2945 104.751ZM15.1132 74.0605L13.4887 71.5383L1.81485 79.0571L3.43928 81.5792L5.06371 84.1014L16.7376 76.5826L15.1132 74.0605ZM3.43928 81.5792L1.77518 79.0831C0.683094 79.8112 0.033021 81.0211 0.011008 82.3199L3.01058 82.3707L6.01015 82.4215C5.99913 83.0718 5.66783 83.6991 5.10338 84.0754L3.43928 81.5792ZM3.01058 82.3707L0.011008 82.3199C-0.0109395 83.6148 0.592943 84.8421 1.65344 85.6093L3.4118 83.1786L5.17016 80.748C5.71401 81.1414 6.0211 81.7752 6.01015 82.4215L3.01058 82.3707ZM3.4118 83.1786L1.64502 85.6032L29.3183 105.769L31.0851 103.344L32.8519 100.92L5.17857 80.7541L3.4118 83.1786ZM31.0851 103.344L29.3275 105.775C31.6123 107.427 34.7048 107.489 37.0562 105.902L35.3776 103.416L33.699 100.929C33.4452 101.101 33.0971 101.097 32.8427 100.913L31.0851 103.344ZM35.3776 103.416L37.0029 105.937L126.288 48.3866L124.663 45.8651L123.038 43.3435L33.7523 100.894L35.3776 103.416ZM124.663 45.8651L126.334 48.3563C127.617 47.4958 128.361 46.0515 128.361 44.5405H125.361H122.361C122.361 44.0957 122.577 43.6517 122.992 43.3738L124.663 45.8651ZM125.361 44.5405L128.36 44.6249L128.877 26.2787L125.878 26.1942L122.879 26.1098L122.362 44.456L125.361 44.5405ZM125.878 26.1942L128.872 26.0087C128.767 24.3125 127.763 22.7988 126.23 22.0325L124.888 24.7157L123.547 27.399C123.179 27.2153 122.912 26.8338 122.883 26.3797L125.878 26.1942ZM124.888 24.7157L126.25 22.0426C124.7 21.2531 122.888 21.3651 121.451 22.2993L123.086 24.8147L124.721 27.33C124.383 27.5498 123.911 27.5848 123.527 27.3889L124.888 24.7157ZM123.086 24.8147L121.408 22.3273L32.3593 82.3731L34.0365 84.8605L35.7138 87.3478L124.763 27.302L123.086 24.8147ZM34.0365 84.8605L31.6453 83.0489C32.094 82.4566 32.6309 82.3209 32.737 82.2986L33.355 85.2342L33.973 88.1699C34.7057 88.0156 35.7043 87.6271 36.4278 86.672L34.0365 84.8605ZM33.355 85.2342L32.7264 82.3008C32.803 82.2844 32.8131 82.2919 32.7493 82.2905C32.6922 82.2892 32.6029 82.2812 32.4911 82.2575C32.2613 82.2088 32.0188 82.1119 31.8119 81.969L30.1068 84.4373L28.4016 86.9056C30.1756 88.1311 32.3543 88.5168 33.9836 88.1676L33.355 85.2342ZM30.1068 84.4373L31.814 81.9704L16.8204 71.5936L15.1132 74.0605L13.4059 76.5273L28.3995 86.9041L30.1068 84.4373ZM92.0487 0.900781L90.3663 -1.58302L-0.128382 59.7159L1.55409 62.1997L3.23656 64.6835L93.7312 3.38459L92.0487 0.900781ZM1.55409 62.1997L-0.121712 59.7114C-1.21056 60.4447 -1.87461 61.6698 -1.87461 63.0022H1.12539H4.12539C4.12539 63.6859 3.78011 64.3175 3.22989 64.688L1.55409 62.1997ZM1.12539 63.0022H-1.87461C-1.87461 64.3213 -1.23382 65.5309 -0.161652 66.2749L1.54859 63.8101L3.25884 61.3453C3.79238 61.7155 4.12539 62.3425 4.12539 63.0022H1.12539ZM1.54859 63.8101L-0.158779 66.2768L13.4278 75.6808L15.1352 73.2141L16.8425 70.7473L3.25596 61.3433L1.54859 63.8101ZM15.1352 73.2141L16.7599 75.736L94.8222 25.4459L93.1974 22.924L91.5727 20.402L13.5104 70.6921L15.1352 73.2141ZM93.1974 22.924L94.872 25.4132C95.9819 24.6665 96.6625 23.4236 96.7018 22.0888L93.7031 22.0006L90.7044 21.9124C90.7217 21.3251 91.0175 20.7748 91.5229 20.4348L93.1974 22.924ZM93.7031 22.0006L96.703 22.0219L96.8459 1.91691L93.846 1.89559L90.8461 1.87427L90.7032 21.9793L93.7031 22.0006ZM93.846 1.89559L96.8451 1.96874C96.8825 0.435028 96.0941 -1.03296 94.6625 -1.79917L93.2469 0.845819L91.8313 3.49081C91.5377 3.33367 91.2723 3.08517 91.0891 2.76307C90.9075 2.44365 90.8398 2.11124 90.8469 1.82244L93.846 1.89559ZM93.2469 0.845819L94.707 -1.77488C93.3236 -2.54567 91.6538 -2.46092 90.3587 -1.5779L92.0487 0.900781L93.7388 3.37946C93.1692 3.76782 92.4008 3.80861 91.7868 3.46652L93.2469 0.845819Z" fill="black" mask="url(#path-1-inside-1_84_3)"/>
<mask id="path-3-inside-2_84_3" fill="white">
<path d="M95.0842 108C93.8201 108 92.5505 107.615 91.4787 106.846L32.4277 63.9368L32.4387 40.9683L92.7978 85.7292C93.7816 86.3997 95.0952 86.4492 96.1395 85.8446L123.538 67.9325C124.022 67.6193 124.61 67.5918 125.121 67.8556C125.632 68.1249 125.945 68.6251 125.962 69.2022L125.478 88.3234C125.495 88.8565 125.214 89.3786 124.747 89.6754L98.5468 106.944C97.5025 107.653 96.2934 108.005 95.0787 108.005L95.0842 108ZM33.1312 63.5796L91.8909 106.279C93.7487 107.609 96.2659 107.642 98.1621 106.356L124.373 89.0764C124.637 88.9115 124.791 88.6202 124.78 88.3179L125.264 69.1967C125.253 68.8999 125.082 68.6196 124.802 68.4712C124.522 68.3228 124.192 68.3393 123.928 68.5151L96.5132 86.4327C95.2216 87.1802 93.6167 87.1197 92.3966 86.2953L33.1422 42.3588L33.1312 63.5796Z"/>
</mask>
<path d="M95.0842 108C93.8201 108 92.5505 107.615 91.4787 106.846L32.4277 63.9368L32.4387 40.9683L92.7978 85.7292C93.7816 86.3997 95.0952 86.4492 96.1395 85.8446L123.538 67.9325C124.022 67.6193 124.61 67.5918 125.121 67.8556C125.632 68.1249 125.945 68.6251 125.962 69.2022L125.478 88.3234C125.495 88.8565 125.214 89.3786 124.747 89.6754L98.5468 106.944C97.5025 107.653 96.2934 108.005 95.0787 108.005L95.0842 108ZM33.1312 63.5796L91.8909 106.279C93.7487 107.609 96.2659 107.642 98.1621 106.356L124.373 89.0764C124.637 88.9115 124.791 88.6202 124.78 88.3179L125.264 69.1967C125.253 68.8999 125.082 68.6196 124.802 68.4712C124.522 68.3228 124.192 68.3393 123.928 68.5151L96.5132 86.4327C95.2216 87.1802 93.6167 87.1197 92.3966 86.2953L33.1422 42.3588L33.1312 63.5796Z" fill="#051314"/>
<path d="M95.0842 108L97.2055 110.121L102.327 105H95.0842V108ZM91.4787 106.846L89.7152 109.272L89.7221 109.277L89.7291 109.282L91.4787 106.846ZM32.4277 63.9368L29.4277 63.9354L29.427 65.4647L30.6642 66.3638L32.4277 63.9368ZM32.4387 40.9683L34.2257 38.5586L29.4416 35.0108L29.4387 40.9668L32.4387 40.9683ZM92.7978 85.7292L91.0108 88.1389L91.0588 88.1745L91.1082 88.2081L92.7978 85.7292ZM96.1395 85.8446L97.6426 88.4409L97.713 88.4001L97.7811 88.3556L96.1395 85.8446ZM123.538 67.9325L121.907 65.4146L121.896 65.4215L123.538 67.9325ZM125.121 67.8556L126.519 65.2015L126.508 65.1955L126.497 65.1897L125.121 67.8556ZM125.962 69.2022L128.961 69.278L128.963 69.1972L128.961 69.1165L125.962 69.2022ZM125.478 88.3234L122.479 88.2475L122.477 88.3318L122.48 88.4161L125.478 88.3234ZM124.747 89.6754L123.138 87.1432L123.117 87.1567L123.096 87.1706L124.747 89.6754ZM98.5468 106.944L96.8958 104.44L96.8787 104.451L96.8617 104.462L98.5468 106.944ZM95.0787 108.005L92.9574 105.884L87.8361 111.005H95.0787V108.005ZM33.1312 63.5796L30.1312 63.578L30.1305 65.1074L31.3677 66.0064L33.1312 63.5796ZM91.8909 106.279L90.1274 108.706L90.1359 108.713L90.1445 108.719L91.8909 106.279ZM98.1621 106.356L96.5109 103.852L96.4944 103.863L96.4781 103.874L98.1621 106.356ZM124.373 89.0764L122.783 86.5324L122.753 86.5516L122.722 86.5717L124.373 89.0764ZM124.78 88.3179L121.781 88.242L121.779 88.3345L121.782 88.4269L124.78 88.3179ZM125.264 69.1967L128.263 69.2725L128.265 69.1791L128.262 69.0856L125.264 69.1967ZM123.928 68.5151L125.569 71.0264L125.581 71.0189L125.592 71.0113L123.928 68.5151ZM96.5132 86.4327L98.0159 89.0292L98.0864 88.9884L98.1545 88.9439L96.5132 86.4327ZM92.3966 86.2953L90.6097 88.7051L90.6625 88.7442L90.717 88.781L92.3966 86.2953ZM33.1422 42.3588L34.9291 39.949L30.1453 36.4019L30.1422 42.3572L33.1422 42.3588ZM95.0842 108V105C94.4243 105 93.7713 104.798 93.2283 104.409L91.4787 106.846L89.7291 109.282C91.3296 110.432 93.2159 111 95.0842 111V108ZM91.4787 106.846L93.2422 104.419L34.1912 61.5099L32.4277 63.9368L30.6642 66.3638L89.7152 109.272L91.4787 106.846ZM32.4277 63.9368L35.4277 63.9382L35.4387 40.9697L32.4387 40.9683L29.4387 40.9668L29.4277 63.9354L32.4277 63.9368ZM32.4387 40.9683L30.6517 43.378L91.0108 88.1389L92.7978 85.7292L94.5848 83.3195L34.2257 38.5586L32.4387 40.9683ZM92.7978 85.7292L91.1082 88.2081C93.0504 89.5318 95.6054 89.6203 97.6426 88.4409L96.1395 85.8446L94.6364 83.2483C94.6182 83.2588 94.5893 83.2682 94.5522 83.2669C94.5146 83.2656 94.4933 83.2542 94.4874 83.2502L92.7978 85.7292ZM96.1395 85.8446L97.7811 88.3556L125.18 70.4435L123.538 67.9325L121.896 65.4215L94.4979 83.3336L96.1395 85.8446ZM123.538 67.9325L125.169 70.4505C124.745 70.725 124.186 70.7489 123.745 70.5215L125.121 67.8556L126.497 65.1897C125.034 64.4347 123.298 64.5135 121.907 65.4146L123.538 67.9325ZM125.121 67.8556L123.722 70.5097C123.281 70.2774 122.978 69.7993 122.963 69.2878L125.962 69.2022L128.961 69.1165C128.913 67.4508 127.983 65.9724 126.519 65.2015L125.121 67.8556ZM125.962 69.2022L122.963 69.1263L122.479 88.2475L125.478 88.3234L128.477 88.3992L128.961 69.278L125.962 69.2022ZM125.478 88.3234L122.48 88.4161C122.462 87.8543 122.742 87.3951 123.138 87.1432L124.747 89.6754L126.356 92.2076C127.687 91.3622 128.527 89.8587 128.477 88.2306L125.478 88.3234ZM124.747 89.6754L123.096 87.1706L96.8958 104.44L98.5468 106.944L100.198 109.449L126.398 92.1803L124.747 89.6754ZM98.5468 106.944L96.8617 104.462C96.3315 104.822 95.7133 105.005 95.0787 105.005V108.005V111.005C96.8735 111.005 98.6736 110.485 100.232 109.426L98.5468 106.944ZM95.0787 108.005L97.2 110.127L97.2055 110.121L95.0842 108L92.9629 105.878L92.9574 105.884L95.0787 108.005ZM33.1312 63.5796L31.3677 66.0064L90.1274 108.706L91.8909 106.279L93.6545 103.853L34.8948 61.1527L33.1312 63.5796ZM91.8909 106.279L90.1445 108.719C93.0245 110.781 96.9108 110.83 99.8461 108.839L98.1621 106.356L96.4781 103.874C95.621 104.455 94.4728 104.438 93.6374 103.84L91.8909 106.279ZM98.1621 106.356L99.8133 108.861L126.025 91.581L124.373 89.0764L122.722 86.5717L96.5109 103.852L98.1621 106.356ZM124.373 89.0764L125.963 91.6203C127.127 90.893 127.829 89.5955 127.778 88.2089L124.78 88.3179L121.782 88.4269C121.754 87.6448 122.147 86.93 122.783 86.5324L124.373 89.0764ZM124.78 88.3179L127.779 88.3937L128.263 69.2725L125.264 69.1967L122.265 69.1208L121.781 88.242L124.78 88.3179ZM125.264 69.1967L128.262 69.0856C128.211 67.7154 127.431 66.4682 126.206 65.8198L124.802 68.4712L123.398 71.1225C122.734 70.7709 122.295 70.0843 122.266 69.3077L125.264 69.1967ZM124.802 68.4712L126.206 65.8198C124.953 65.1568 123.446 65.2311 122.264 66.019L123.928 68.5151L125.592 71.0113C124.938 71.4474 124.09 71.4887 123.398 71.1225L124.802 68.4712ZM123.928 68.5151L122.287 66.0039L94.872 83.9215L96.5132 86.4327L98.1545 88.9439L125.569 71.0264L123.928 68.5151ZM96.5132 86.4327L95.0106 83.8362C94.7125 84.0087 94.3434 83.9901 94.0762 83.8095L92.3966 86.2953L90.717 88.781C92.8901 90.2493 95.7308 90.3517 98.0159 89.0292L96.5132 86.4327ZM92.3966 86.2953L94.1834 83.8855L34.9291 39.949L33.1422 42.3588L31.3554 44.7686L90.6097 88.7051L92.3966 86.2953ZM33.1422 42.3588L30.1422 42.3572L30.1312 63.578L33.1312 63.5796L36.1312 63.5811L36.1422 42.3603L33.1422 42.3588Z" fill="black" mask="url(#path-3-inside-2_84_3)"/>
<mask id="path-5-inside-3_84_3" fill="white">
<path d="M93.9958 66.0466C93.82 66.0466 93.6551 65.9367 93.5232 65.8487L63.1348 42.8747V20.1479L94.43 43.6441V65.1012C94.4245 65.2167 94.4245 65.3156 94.43 65.398C94.43 65.6179 94.43 65.8652 94.1992 65.9971C94.1332 66.0356 94.0673 66.0466 94.0013 66.0466H93.9958ZM63.8328 42.5284L93.7265 65.1232C93.7265 65.1232 93.7265 65.0847 93.7265 65.0683V43.9904L63.8328 21.5495V42.5229V42.5284Z"/>
</mask>
<path d="M93.9958 66.0466C93.82 66.0466 93.6551 65.9367 93.5232 65.8487L63.1348 42.8747V20.1479L94.43 43.6441V65.1012C94.4245 65.2167 94.4245 65.3156 94.43 65.398C94.43 65.6179 94.43 65.8652 94.1992 65.9971C94.1332 66.0356 94.0673 66.0466 94.0013 66.0466H93.9958ZM63.8328 42.5284L93.7265 65.1232C93.7265 65.1232 93.7265 65.0847 93.7265 65.0683V43.9904L63.8328 21.5495V42.5229V42.5284Z" fill="#051314"/>
<path d="M93.5232 65.8487L91.714 68.2418L91.785 68.2955L91.8591 68.3449L93.5232 65.8487ZM63.1348 42.8747H60.1348V44.3675L61.3256 45.2677L63.1348 42.8747ZM63.1348 20.1479L64.936 17.7489L60.1348 14.1442V20.1479H63.1348ZM94.43 43.6441H97.43V42.1451L96.2312 41.245L94.43 43.6441ZM94.43 65.1012L97.4266 65.2439L97.43 65.1726V65.1012H94.43ZM94.43 65.398H97.43V65.2981L97.4234 65.1985L94.43 65.398ZM94.1992 65.9971L92.7108 63.3924L92.6991 63.399L92.6876 63.4058L94.1992 65.9971ZM63.8328 42.5284H60.8328V44.0214L62.0239 44.9217L63.8328 42.5284ZM93.7265 65.1232L91.9176 67.5165L96.7265 71.1513V65.1232H93.7265ZM93.7265 43.9904H96.7265V42.4912L95.5276 41.5912L93.7265 43.9904ZM63.8328 21.5495L65.6338 19.1503L60.8328 15.5462V21.5495H63.8328ZM93.9958 66.0466V63.0466C94.5254 63.0466 94.9019 63.2088 95.0473 63.279C95.1844 63.3452 95.2785 63.4134 95.1873 63.3526L93.5232 65.8487L91.8591 68.3449C91.8997 68.372 92.1423 68.5391 92.4388 68.6823C92.7435 68.8294 93.2904 69.0466 93.9958 69.0466V66.0466ZM93.5232 65.8487L95.3324 63.4556L64.944 40.4816L63.1348 42.8747L61.3256 45.2677L91.714 68.2418L93.5232 65.8487ZM63.1348 42.8747H66.1348V20.1479H63.1348H60.1348V42.8747H63.1348ZM63.1348 20.1479L61.3336 22.547L92.6288 46.0432L94.43 43.6441L96.2312 41.245L64.936 17.7489L63.1348 20.1479ZM94.43 43.6441H91.43V65.1012H94.43H97.43V43.6441H94.43ZM94.43 65.1012L91.4334 64.9585C91.4245 65.1469 91.4213 65.3664 91.4367 65.5976L94.43 65.398L97.4234 65.1985C97.4258 65.2351 97.4259 65.2574 97.4259 65.262C97.4259 65.2672 97.4258 65.2618 97.4266 65.2439L94.43 65.1012ZM94.43 65.398H91.43C91.43 65.5912 91.4112 65.2919 91.5069 64.9412C91.5663 64.7232 91.6794 64.4301 91.8965 64.1281C92.1204 63.8164 92.4031 63.5682 92.7108 63.3924L94.1992 65.9971L95.6876 68.6018C96.6227 68.0675 97.0998 67.2372 97.2955 66.5199C97.4488 65.9576 97.43 65.4247 97.43 65.398H94.43ZM94.1992 65.9971L92.6876 63.4058C93.2092 63.1015 93.7083 63.0466 94.0013 63.0466V66.0466V69.0466C94.4263 69.0466 95.0572 68.9697 95.7108 68.5884L94.1992 65.9971ZM94.0013 66.0466V63.0466H93.9958V66.0466V69.0466H94.0013V66.0466ZM63.8328 42.5284L62.0239 44.9217L91.9176 67.5165L93.7265 65.1232L95.5355 62.7299L65.6417 40.1351L63.8328 42.5284ZM93.7265 65.1232C96.7265 65.1232 96.7265 65.1232 96.7265 65.1232C96.7265 65.1232 96.7265 65.1232 96.7265 65.1232C96.7265 65.1232 96.7265 65.1232 96.7265 65.1232C96.7265 65.1232 96.7265 65.1232 96.7265 65.1232C96.7265 65.1232 96.7265 65.1232 96.7265 65.1232C96.7265 65.1232 96.7265 65.1232 96.7265 65.1232C96.7265 65.1232 96.7265 65.1232 96.7265 65.1232C96.7265 65.1232 96.7265 65.1232 96.7265 65.1232C96.7265 65.1232 96.7265 65.1232 96.7265 65.1232C96.7265 65.1232 96.7265 65.1232 96.7265 65.1232C96.7265 65.1232 96.7265 65.1232 96.7265 65.1232C96.7265 65.1232 96.7265 65.1232 96.7265 65.1232C96.7265 65.1232 96.7265 65.1232 96.7265 65.1231C96.7265 65.1231 96.7265 65.1231 96.7265 65.1231C96.7265 65.1231 96.7265 65.1231 96.7265 65.1231C96.7265 65.1231 96.7265 65.1231 96.7265 65.1231C96.7265 65.1231 96.7265 65.1231 96.7265 65.1231C96.7265 65.1231 96.7265 65.1231 96.7265 65.1231C96.7265 65.1231 96.7265 65.1231 96.7265 65.1231C96.7265 65.1231 96.7265 65.1231 96.7265 65.123C96.7265 65.123 96.7265 65.123 96.7265 65.123C96.7265 65.123 96.7265 65.123 96.7265 65.123C96.7265 65.123 96.7265 65.123 96.7265 65.123C96.7265 65.123 96.7265 65.123 96.7265 65.123C96.7265 65.123 96.7265 65.123 96.7265 65.123C96.7265 65.1229 96.7265 65.1229 96.7265 65.1229C96.7265 65.1229 96.7265 65.1229 96.7265 65.1229C96.7265 65.1229 96.7265 65.1229 96.7265 65.1229C96.7265 65.1229 96.7265 65.1229 96.7265 65.1229C96.7265 65.1229 96.7265 65.1228 96.7265 65.1228C96.7265 65.1228 96.7265 65.1228 96.7265 65.1228C96.7265 65.1228 96.7265 65.1228 96.7265 65.1228C96.7265 65.1228 96.7265 65.1228 96.7265 65.1228C96.7265 65.1227 96.7265 65.1227 96.7265 65.1227C96.7265 65.1227 96.7265 65.1227 96.7265 65.1227C96.7265 65.1227 96.7265 65.1227 96.7265 65.1227C96.7265 65.1227 96.7265 65.1227 96.7265 65.1226C96.7265 65.1226 96.7265 65.1226 96.7265 65.1226C96.7265 65.1226 96.7265 65.1226 96.7265 65.1226C96.7265 65.1226 96.7265 65.1226 96.7265 65.1225C96.7265 65.1225 96.7265 65.1225 96.7265 65.1225C96.7265 65.1225 96.7265 65.1225 96.7265 65.1225C96.7265 65.1225 96.7265 65.1225 96.7265 65.1224C96.7265 65.1224 96.7265 65.1224 96.7265 65.1224C96.7265 65.1224 96.7265 65.1224 96.7265 65.1224C96.7265 65.1224 96.7265 65.1223 96.7265 65.1223C96.7265 65.1223 96.7265 65.1223 96.7265 65.1223C96.7265 65.1223 96.7265 65.1223 96.7265 65.1223C96.7265 65.1222 96.7265 65.1222 96.7265 65.1222C96.7265 65.1222 96.7265 65.1222 96.7265 65.1222C96.7265 65.1222 96.7265 65.1221 96.7265 65.1221C96.7265 65.1221 96.7265 65.1221 96.7265 65.1221C96.7265 65.1221 96.7265 65.1221 96.7265 65.1221C96.7265 65.122 96.7265 65.122 96.7265 65.122C96.7265 65.122 96.7265 65.122 96.7265 65.122C96.7265 65.1219 96.7265 65.1219 96.7265 65.1219C96.7265 65.1219 96.7265 65.1219 96.7265 65.1219C96.7265 65.1219 96.7265 65.1218 96.7265 65.1218C96.7265 65.1218 96.7265 65.1218 96.7265 65.1218C96.7265 65.1218 96.7265 65.1217 96.7265 65.1217C96.7265 65.1217 96.7265 65.1217 96.7265 65.1217C96.7265 65.1217 96.7265 65.1217 96.7265 65.1216C96.7265 65.1216 96.7265 65.1216 96.7265 65.1216C96.7265 65.1216 96.7265 65.1216 96.7265 65.1215C96.7265 65.1215 96.7265 65.1215 96.7265 65.1215C96.7265 65.1215 96.7265 65.1214 96.7265 65.1214C96.7265 65.1214 96.7265 65.1214 96.7265 65.1214C96.7265 65.1214 96.7265 65.1213 96.7265 65.1213C96.7265 65.1213 96.7265 65.1213 96.7265 65.1213C96.7265 65.1213 96.7265 65.1212 96.7265 65.1212C96.7265 65.1212 96.7265 65.1212 96.7265 65.1212C96.7265 65.1211 96.7265 65.1211 96.7265 65.1211C96.7265 65.1211 96.7265 65.1211 96.7265 65.121C96.7265 65.121 96.7265 65.121 96.7265 65.121C96.7265 65.121 96.7265 65.121 96.7265 65.1209C96.7265 65.1209 96.7265 65.1209 96.7265 65.1209C96.7265 65.1209 96.7265 65.1208 96.7265 65.1208C96.7265 65.1208 96.7265 65.1208 96.7265 65.1208C96.7265 65.1207 96.7265 65.1207 96.7265 65.1207C96.7265 65.1207 96.7265 65.1207 96.7265 65.1206C96.7265 65.1206 96.7265 65.1206 96.7265 65.1206C96.7265 65.1206 96.7265 65.1205 96.7265 65.1205C96.7265 65.1205 96.7265 65.1205 96.7265 65.1204C96.7265 65.1204 96.7265 65.1204 96.7265 65.1204C96.7265 65.1204 96.7265 65.1203 96.7265 65.1203C96.7265 65.1203 96.7265 65.1203 96.7265 65.1203C96.7265 65.1202 96.7265 65.1202 96.7265 65.1202C96.7265 65.1202 96.7265 65.1201 96.7265 65.1201C96.7265 65.1201 96.7265 65.1201 96.7265 65.1201C96.7265 65.12 96.7265 65.12 96.7265 65.12C96.7265 65.12 96.7265 65.1199 96.7265 65.1199C96.7265 65.1199 96.7265 65.1199 96.7265 65.1198C96.7265 65.1198 96.7265 65.1198 96.7265 65.1198C96.7265 65.1198 96.7265 65.1197 96.7265 65.1197C96.7265 65.1197 96.7265 65.1197 96.7265 65.1196C96.7265 65.1196 96.7265 65.1196 96.7265 65.1196C96.7265 65.1195 96.7265 65.1195 96.7265 65.1195C96.7265 65.1195 96.7265 65.1194 96.7265 65.1194C96.7265 65.1194 96.7265 65.1194 96.7265 65.1193C96.7265 65.1193 96.7265 65.1193 96.7265 65.1193C96.7265 65.1192 96.7265 65.1192 96.7265 65.1192C96.7265 65.1192 96.7265 65.1191 96.7265 65.1191C96.7265 65.1191 96.7265 65.1191 96.7265 65.119C96.7265 65.119 96.7265 65.119 96.7265 65.119C96.7265 65.1189 96.7265 65.1189 96.7265 65.1189C96.7265 65.1189 96.7265 65.1188 96.7265 65.1188C96.7265 65.1188 96.7265 65.1188 96.7265 65.1187C96.7265 65.1187 96.7265 65.1187 96.7265 65.1187C96.7265 65.1186 96.7265 65.1186 96.7265 65.1186C96.7265 65.1185 96.7265 65.1185 96.7265 65.1185C96.7265 65.1185 96.7265 65.1184 96.7265 65.1184C96.7265 65.1184 96.7265 65.1184 96.7265 65.1183C96.7265 65.1183 96.7265 65.1183 96.7265 65.1182C96.7265 65.1182 96.7265 65.1182 96.7265 65.1182C96.7265 65.1181 96.7265 65.1181 96.7265 65.1181C96.7265 65.1181 96.7265 65.118 96.7265 65.118C96.7265 65.118 96.7265 65.1179 96.7265 65.1179C96.7265 65.1179 96.7265 65.1179 96.7265 65.1178C96.7265 65.1178 96.7265 65.1178 96.7265 65.1177C96.7265 65.1177 96.7265 65.1177 96.7265 65.1177C96.7265 65.1176 96.7265 65.1176 96.7265 65.1176C96.7265 65.1175 96.7265 65.1175 96.7265 65.1175C96.7265 65.1175 96.7265 65.1174 96.7265 65.1174C96.7265 65.1174 96.7265 65.1173 96.7265 65.1173C96.7265 65.1173 96.7265 65.1173 96.7265 65.1172C96.7265 65.1172 96.7265 65.1172 96.7265 65.1171C96.7265 65.1171 96.7265 65.1171 96.7265 65.117C96.7265 65.117 96.7265 65.117 96.7265 65.117C96.7265 65.1169 96.7265 65.1169 96.7265 65.1169C96.7265 65.1168 96.7265 65.1168 96.7265 65.1168C96.7265 65.1167 96.7265 65.1167 96.7265 65.1167C96.7265 65.1166 96.7265 65.1166 96.7265 65.1166C96.7265 65.1166 96.7265 65.1165 96.7265 65.1165C96.7265 65.1165 96.7265 65.1164 96.7265 65.1164C96.7265 65.1164 96.7265 65.1163 96.7265 65.1163C96.7265 65.1163 96.7265 65.1162 96.7265 65.1162C96.7265 65.1162 96.7265 65.1161 96.7265 65.1161C96.7265 65.1161 96.7265 65.1161 96.7265 65.116C96.7265 65.116 96.7265 65.116 96.7265 65.1159C96.7265 65.1159 96.7265 65.1159 96.7265 65.1158C96.7265 65.1158 96.7265 65.1158 96.7265 65.1157C96.7265 65.1157 96.7265 65.1157 96.7265 65.1156C96.7265 65.1156 96.7265 65.1156 96.7265 65.1155C96.7265 65.1155 96.7265 65.1155 96.7265 65.1154C96.7265 65.1154 96.7265 65.1154 96.7265 65.1153C96.7265 65.1153 96.7265 65.1153 96.7265 65.1152C96.7265 65.1152 96.7265 65.1152 96.7265 65.1151C96.7265 65.1151 96.7265 65.1151 96.7265 65.115C96.7265 65.115 96.7265 65.115 96.7265 65.1149C96.7265 65.1149 96.7265 65.1149 96.7265 65.1148C96.7265 65.1148 96.7265 65.1148 96.7265 65.1147C96.7265 65.1147 96.7265 65.1147 96.7265 65.1146C96.7265 65.1146 96.7265 65.1146 96.7265 65.1145C96.7265 65.1145 96.7265 65.1145 96.7265 65.1144C96.7265 65.1144 96.7265 65.1144 96.7265 65.1143C96.7265 65.1143 96.7265 65.1143 96.7265 65.1142C96.7265 65.1142 96.7265 65.1141 96.7265 65.1141C96.7265 65.1141 96.7265 65.114 96.7265 65.114C96.7265 65.114 96.7265 65.1139 96.7265 65.1139C96.7265 65.1139 96.7265 65.1138 96.7265 65.1138C96.7265 65.1138 96.7265 65.1137 96.7265 65.1137C96.7265 65.1137 96.7265 65.1136 96.7265 65.1136C96.7265 65.1135 96.7265 65.1135 96.7265 65.1135C96.7265 65.1134 96.7265 65.1134 96.7265 65.1134C96.7265 65.1133 96.7265 65.1133 96.7265 65.1133C96.7265 65.1132 96.7265 65.1132 96.7265 65.1131C96.7265 65.1131 96.7265 65.1131 96.7265 65.113C96.7265 65.113 96.7265 65.113 96.7265 65.1129C96.7265 65.1129 96.7265 65.1129 96.7265 65.1128C96.7265 65.1128 96.7265 65.1127 96.7265 65.1127C96.7265 65.1127 96.7265 65.1126 96.7265 65.1126C96.7265 65.1126 96.7265 65.1125 96.7265 65.1125C96.7265 65.1124 96.7265 65.1124 96.7265 65.1124C96.7265 65.1123 96.7265 65.1123 96.7265 65.1123C96.7265 65.1122 96.7265 65.1122 96.7265 65.1122C96.7265 65.1121 96.7265 65.1121 96.7265 65.112C96.7265 65.112 96.7265 65.112 96.7265 65.1119C96.7265 65.1119 96.7265 65.1118 96.7265 65.1118C96.7265 65.1118 96.7265 65.1117 96.7265 65.1117C96.7265 65.1117 96.7265 65.1116 96.7265 65.1116C96.7265 65.1115 96.7265 65.1115 96.7265 65.1115C96.7265 65.1114 96.7265 65.1114 96.7265 65.1114C96.7265 65.1113 96.7265 65.1113 96.7265 65.1112C96.7265 65.1112 96.7265 65.1112 96.7265 65.1111C96.7265 65.1111 96.7265 65.111 96.7265 65.111C96.7265 65.111 96.7265 65.1109 96.7265 65.1109C96.7265 65.1108 96.7265 65.1108 96.7265 65.1108C96.7265 65.1107 96.7265 65.1107 96.7265 65.1107C96.7265 65.1106 96.7265 65.1106 96.7265 65.1105C96.7265 65.1105 96.7265 65.1105 96.7265 65.1104C96.7265 65.1104 96.7265 65.1103 96.7265 65.1103C96.7265 65.1103 96.7265 65.1102 96.7265 65.1102C96.7265 65.1101 96.7265 65.1101 96.7265 65.1101C96.7265 65.11 96.7265 65.11 96.7265 65.1099C96.7265 65.1099 96.7265 65.1099 96.7265 65.1098C96.7265 65.1098 96.7265 65.1097 96.7265 65.1097C96.7265 65.1097 96.7265 65.1096 96.7265 65.1096C96.7265 65.1095 96.7265 65.1095 96.7265 65.1095C96.7265 65.1094 96.7265 65.1094 96.7265 65.1093C96.7265 65.1093 96.7265 65.1093 96.7265 65.1092C96.7265 65.1092 96.7265 65.1091 96.7265 65.1091C96.7265 65.109 96.7265 65.109 96.7265 65.109C96.7265 65.1089 96.7265 65.1089 96.7265 65.1088C96.7265 65.1088 96.7265 65.1088 96.7265 65.1087C96.7265 65.1087 96.7265 65.1086 96.7265 65.1086C96.7265 65.1086 96.7265 65.1085 96.7265 65.1085C96.7265 65.1084 96.7265 65.1084 96.7265 65.1083C96.7265 65.1083 96.7265 65.1083 96.7265 65.1082C96.7265 65.1082 96.7265 65.1081 96.7265 65.1081C96.7265 65.1081 96.7265 65.108 96.7265 65.108C96.7265 65.1079 96.7265 65.1079 96.7265 65.1078C96.7265 65.1078 96.7265 65.1078 96.7265 65.1077C96.7265 65.1077 96.7265 65.1076 96.7265 65.1076C96.7265 65.1076 96.7265 65.1075 96.7265 65.1075C96.7265 65.1074 96.7265 65.1074 96.7265 65.1073C96.7265 65.1073 96.7265 65.1073 96.7265 65.1072C96.7265 65.1072 96.7265 65.1071 96.7265 65.1071C96.7265 65.107 96.7265 65.107 96.7265 65.107C96.7265 65.1069 96.7265 65.1069 96.7265 65.1068C96.7265 65.1068 96.7265 65.1067 96.7265 65.1067C96.7265 65.1067 96.7265 65.1066 96.7265 65.1066C96.7265 65.1065 96.7265 65.1065 96.7265 65.1064C96.7265 65.1064 96.7265 65.1064 96.7265 65.1063C96.7265 65.1063 96.7265 65.1062 96.7265 65.1062C96.7265 65.1061 96.7265 65.1061 96.7265 65.1061C96.7265 65.106 96.7265 65.106 96.7265 65.1059C96.7265 65.1059 96.7265 65.1058 96.7265 65.1058C96.7265 65.1058 96.7265 65.1057 96.7265 65.1057C96.7265 65.1056 96.7265 65.1056 96.7265 65.1055C96.7265 65.1055 96.7265 65.1055 96.7265 65.1054C96.7265 65.1054 96.7265 65.1053 96.7265 65.1053C96.7265 65.1052 96.7265 65.1052 96.7265 65.1051C96.7265 65.1051 96.7265 65.1051 96.7265 65.105C96.7265 65.105 96.7265 65.1049 96.7265 65.1049C96.7265 65.1048 96.7265 65.1048 96.7265 65.1048C96.7265 65.1047 96.7265 65.1047 96.7265 65.1046C96.7265 65.1046 96.7265 65.1045 96.7265 65.1045C96.7265 65.1044 96.7265 65.1044 96.7265 65.1044C96.7265 65.1043 96.7265 65.1043 96.7265 65.1042C96.7265 65.1042 96.7265 65.1041 96.7265 65.1041C96.7265 65.104 96.7265 65.104 96.7265 65.104C96.7265 65.1039 96.7265 65.1039 96.7265 65.1038C96.7265 65.1038 96.7265 65.1037 96.7265 65.1037C96.7265 65.1036 96.7265 65.1036 96.7265 65.1035C96.7265 65.1035 96.7265 65.1035 96.7265 65.1034C96.7265 65.1034 96.7265 65.1033 96.7265 65.1033C96.7265 65.1032 96.7265 65.1032 96.7265 65.1031C96.7265 65.1031 96.7265 65.1031 96.7265 65.103C96.7265 65.103 96.7265 65.1029 96.7265 65.1029C96.7265 65.1028 96.7265 65.1028 96.7265 65.1027C96.7265 65.1027 96.7265 65.1026 96.7265 65.1026C96.7265 65.1026 96.7265 65.1025 96.7265 65.1025C96.7265 65.1024 96.7265 65.1024 96.7265 65.1023C96.7265 65.1023 96.7265 65.1022 96.7265 65.1022C96.7265 65.1021 96.7265 65.1021 96.7265 65.1021C96.7265 65.102 96.7265 65.102 96.7265 65.1019C96.7265 65.1019 96.7265 65.1018 96.7265 65.1018C96.7265 65.1017 96.7265 65.1017 96.7265 65.1016C96.7265 65.1016 96.7265 65.1016 96.7265 65.1015C96.7265 65.1015 96.7265 65.1014 96.7265 65.1014C96.7265 65.1013 96.7265 65.1013 96.7265 65.1012C96.7265 65.1012 96.7265 65.1011 96.7265 65.1011C96.7265 65.1011 96.7265 65.101 96.7265 65.101C96.7265 65.1009 96.7265 65.1009 96.7265 65.1008C96.7265 65.1008 96.7265 65.1007 96.7265 65.1007C96.7265 65.1006 96.7265 65.1006 96.7265 65.1005C96.7265 65.1005 96.7265 65.1005 96.7265 65.1004C96.7265 65.1004 96.7265 65.1003 96.7265 65.1003C96.7265 65.1002 96.7265 65.1002 96.7265 65.1001C96.7265 65.1001 96.7265 65.1 96.7265 65.1C96.7265 65.0999 96.7265 65.0999 96.7265 65.0998C96.7265 65.0998 96.7265 65.0998 96.7265 65.0997C96.7265 65.0997 96.7265 65.0996 96.7265 65.0996C96.7265 65.0995 96.7265 65.0995 96.7265 65.0994C96.7265 65.0994 96.7265 65.0993 96.7265 65.0993C96.7265 65.0992 96.7265 65.0992 96.7265 65.0991C96.7265 65.0991 96.7265 65.0991 96.7265 65.099C96.7265 65.099 96.7265 65.0989 96.7265 65.0989C96.7265 65.0988 96.7265 65.0988 96.7265 65.0987C96.7265 65.0987 96.7265 65.0986 96.7265 65.0986C96.7265 65.0985 96.7265 65.0985 96.7265 65.0984C96.7265 65.0984 96.7265 65.0984 96.7265 65.0983C96.7265 65.0983 96.7265 65.0982 96.7265 65.0982C96.7265 65.0981 96.7265 65.0981 96.7265 65.098C96.7265 65.098 96.7265 65.0979 96.7265 65.0979C96.7265 65.0978 96.7265 65.0978 96.7265 65.0977C96.7265 65.0977 96.7265 65.0976 96.7265 65.0976C96.7265 65.0976 96.7265 65.0975 96.7265 65.0975C96.7265 65.0974 96.7265 65.0974 96.7265 65.0973C96.7265 65.0973 96.7265 65.0972 96.7265 65.0972C96.7265 65.0971 96.7265 65.0971 96.7265 65.097C96.7265 65.097 96.7265 65.0969 96.7265 65.0969C96.7265 65.0968 96.7265 65.0968 96.7265 65.0968C96.7265 65.0967 96.7265 65.0967 96.7265 65.0966C96.7265 65.0966 96.7265 65.0965 96.7265 65.0965C96.7265 65.0964 96.7265 65.0964 96.7265 65.0963C96.7265 65.0963 96.7265 65.0962 96.7265 65.0962C96.7265 65.0961 96.7265 65.0961 96.7265 65.096C96.7265 65.096 96.7265 65.0959 96.7265 65.0959C96.7265 65.0958 96.7265 65.0958 96.7265 65.0958C96.7265 65.0957 96.7265 65.0957 96.7265 65.0956C96.7265 65.0956 96.7265 65.0955 96.7265 65.0955C96.7265 65.0954 96.7265 65.0954 96.7265 65.0953C96.7265 65.0953 96.7265 65.0952 96.7265 65.0952C96.7265 65.0951 96.7265 65.0951 96.7265 65.095C96.7265 65.095 96.7265 65.0949 96.7265 65.0949C96.7265 65.0949 96.7265 65.0948 96.7265 65.0948C96.7265 65.0947 96.7265 65.0947 96.7265 65.0946C96.7265 65.0946 96.7265 65.0945 96.7265 65.0945C96.7265 65.0944 96.7265 65.0944 96.7265 65.0943C96.7265 65.0943 96.7265 65.0942 96.7265 65.0942C96.7265 65.0941 96.7265 65.0941 96.7265 65.094C96.7265 65.094 96.7265 65.0939 96.7265 65.0939C96.7265 65.0938 96.7265 65.0938 96.7265 65.0938C96.7265 65.0937 96.7265 65.0937 96.7265 65.0936C96.7265 65.0936 96.7265 65.0935 96.7265 65.0935C96.7265 65.0934 96.7265 65.0934 96.7265 65.0933C96.7265 65.0933 96.7265 65.0932 96.7265 65.0932C96.7265 65.0931 96.7265 65.0931 96.7265 65.093C96.7265 65.093 96.7265 65.0929 96.7265 65.0929C96.7265 65.0928 96.7265 65.0928 96.7265 65.0927C96.7265 65.0927 96.7265 65.0927 96.7265 65.0926C96.7265 65.0926 96.7265 65.0925 96.7265 65.0925C96.7265 65.0924 96.7265 65.0924 96.7265 65.0923C96.7265 65.0923 96.7265 65.0922 96.7265 65.0922C96.7265 65.0921 96.7265 65.0921 96.7265 65.092C96.7265 65.092 96.7265 65.0919 96.7265 65.0919C96.7265 65.0918 96.7265 65.0918 96.7265 65.0917C96.7265 65.0917 96.7265 65.0916 96.7265 65.0916C96.7265 65.0916 96.7265 65.0915 96.7265 65.0915C96.7265 65.0914 96.7265 65.0914 96.7265 65.0913C96.7265 65.0913 96.7265 65.0912 96.7265 65.0912C96.7265 65.0911 96.7265 65.0911 96.7265 65.091C96.7265 65.091 96.7265 65.0909 96.7265 65.0909C96.7265 65.0908 96.7265 65.0908 96.7265 65.0907C96.7265 65.0907 96.7265 65.0906 96.7265 65.0906C96.7265 65.0906 96.7265 65.0905 96.7265 65.0905C96.7265 65.0904 96.7265 65.0904 96.7265 65.0903C96.7265 65.0903 96.7265 65.0902 96.7265 65.0902C96.7265 65.0901 96.7265 65.0901 96.7265 65.09C96.7265 65.09 96.7265 65.0899 96.7265 65.0899C96.7265 65.0898 96.7265 65.0898 96.7265 65.0897C96.7265 65.0897 96.7265 65.0896 96.7265 65.0896C96.7265 65.0895 96.7265 65.0895 96.7265 65.0895C96.7265 65.0894 96.7265 65.0894 96.7265 65.0893C96.7265 65.0893 96.7265 65.0892 96.7265 65.0892C96.7265 65.0891 96.7265 65.0891 96.7265 65.089C96.7265 65.089 96.7265 65.0889 96.7265 65.0889C96.7265 65.0888 96.7265 65.0888 96.7265 65.0887C96.7265 65.0887 96.7265 65.0886 96.7265 65.0886C96.7265 65.0885 96.7265 65.0885 96.7265 65.0885C96.7265 65.0884 96.7265 65.0884 96.7265 65.0883C96.7265 65.0883 96.7265 65.0882 96.7265 65.0882C96.7265 65.0881 96.7265 65.0881 96.7265 65.088C96.7265 65.088 96.7265 65.0879 96.7265 65.0879C96.7265 65.0878 96.7265 65.0878 96.7265 65.0877C96.7265 65.0877 96.7265 65.0876 96.7265 65.0876C96.7265 65.0876 96.7265 65.0875 96.7265 65.0875C96.7265 65.0874 96.7265 65.0874 96.7265 65.0873C96.7265 65.0873 96.7265 65.0872 96.7265 65.0872C96.7265 65.0871 96.7265 65.0871 96.7265 65.087C96.7265 65.087 96.7265 65.0869 96.7265 65.0869C96.7265 65.0868 96.7265 65.0868 96.7265 65.0867C96.7265 65.0867 96.7265 65.0867 96.7265 65.0866C96.7265 65.0866 96.7265 65.0865 96.7265 65.0865C96.7265 65.0864 96.7265 65.0864 96.7265 65.0863C96.7265 65.0863 96.7265 65.0862 96.7265 65.0862C96.7265 65.0861 96.7265 65.0861 96.7265 65.086C96.7265 65.086 96.7265 65.0859 96.7265 65.0859C96.7265 65.0859 96.7265 65.0858 96.7265 65.0858C96.7265 65.0857 96.7265 65.0857 96.7265 65.0856C96.7265 65.0856 96.7265 65.0855 96.7265 65.0855C96.7265 65.0854 96.7265 65.0854 96.7265 65.0853C96.7265 65.0853 96.7265 65.0852 96.7265 65.0852C96.7265 65.0851 96.7265 65.0851 96.7265 65.0851C96.7265 65.085 96.7265 65.085 96.7265 65.0849C96.7265 65.0849 96.7265 65.0848 96.7265 65.0848C96.7265 65.0847 96.7265 65.0847 96.7265 65.0846C96.7265 65.0846 96.7265 65.0845 96.7265 65.0845C96.7265 65.0844 96.7265 65.0844 96.7265 65.0844C96.7265 65.0843 96.7265 65.0843 96.7265 65.0842C96.7265 65.0842 96.7265 65.0841 96.7265 65.0841C96.7265 65.084 96.7265 65.084 96.7265 65.0839C96.7265 65.0839 96.7265 65.0838 96.7265 65.0838C96.7265 65.0838 96.7265 65.0837 96.7265 65.0837C96.7265 65.0836 96.7265 65.0836 96.7265 65.0835C96.7265 65.0835 96.7265 65.0834 96.7265 65.0834C96.7265 65.0833 96.7265 65.0833 96.7265 65.0832C96.7265 65.0832 96.7265 65.0832 96.7265 65.0831C96.7265 65.0831 96.7265 65.083 96.7265 65.083C96.7265 65.0829 96.7265 65.0829 96.7265 65.0828C96.7265 65.0828 96.7265 65.0827 96.7265 65.0827C96.7265 65.0826 96.7265 65.0826 96.7265 65.0826C96.7265 65.0825 96.7265 65.0825 96.7265 65.0824C96.7265 65.0824 96.7265 65.0823 96.7265 65.0823C96.7265 65.0822 96.7265 65.0822 96.7265 65.0821C96.7265 65.0821 96.7265 65.0821 96.7265 65.082C96.7265 65.082 96.7265 65.0819 96.7265 65.0819C96.7265 65.0818 96.7265 65.0818 96.7265 65.0817C96.7265 65.0817 96.7265 65.0816 96.7265 65.0816C96.7265 65.0816 96.7265 65.0815 96.7265 65.0815C96.7265 65.0814 96.7265 65.0814 96.7265 65.0813C96.7265 65.0813 96.7265 65.0812 96.7265 65.0812C96.7265 65.0811 96.7265 65.0811 96.7265 65.0811C96.7265 65.081 96.7265 65.081 96.7265 65.0809C96.7265 65.0809 96.7265 65.0808 96.7265 65.0808C96.7265 65.0807 96.7265 65.0807 96.7265 65.0807C96.7265 65.0806 96.7265 65.0806 96.7265 65.0805C96.7265 65.0805 96.7265 65.0804 96.7265 65.0804C96.7265 65.0803 96.7265 65.0803 96.7265 65.0803C96.7265 65.0802 96.7265 65.0802 96.7265 65.0801C96.7265 65.0801 96.7265 65.08 96.7265 65.08C96.7265 65.0799 96.7265 65.0799 96.7265 65.0798C96.7265 65.0798 96.7265 65.0798 96.7265 65.0797C96.7265 65.0797 96.7265 65.0796 96.7265 65.0796C96.7265 65.0795 96.7265 65.0795 96.7265 65.0795C96.7265 65.0794 96.7265 65.0794 96.7265 65.0793C96.7265 65.0793 96.7265 65.0792 96.7265 65.0792C96.7265 65.0791 96.7265 65.0791 96.7265 65.0791C96.7265 65.079 96.7265 65.079 96.7265 65.0789C96.7265 65.0789 96.7265 65.0788 96.7265 65.0788C96.7265 65.0787 96.7265 65.0787 96.7265 65.0787C96.7265 65.0786 96.7265 65.0786 96.7265 65.0785C96.7265 65.0785 96.7265 65.0784 96.7265 65.0784C96.7265 65.0784 96.7265 65.0783 96.7265 65.0783C96.7265 65.0782 96.7265 65.0782 96.7265 65.0781C96.7265 65.0781 96.7265 65.0781 96.7265 65.078C96.7265 65.078 96.7265 65.0779 96.7265 65.0779C96.7265 65.0778 96.7265 65.0778 96.7265 65.0778C96.7265 65.0777 96.7265 65.0777 96.7265 65.0776C96.7265 65.0776 96.7265 65.0775 96.7265 65.0775C96.7265 65.0775 96.7265 65.0774 96.7265 65.0774C96.7265 65.0773 96.7265 65.0773 96.7265 65.0772C96.7265 65.0772 96.7265 65.0772 96.7265 65.0771C96.7265 65.0771 96.7265 65.077 96.7265 65.077C96.7265 65.0769 96.7265 65.0769 96.7265 65.0769C96.7265 65.0768 96.7265 65.0768 96.7265 65.0767C96.7265 65.0767 96.7265 65.0766 96.7265 65.0766C96.7265 65.0766 96.7265 65.0765 96.7265 65.0765C96.7265 65.0764 96.7265 65.0764 96.7265 65.0763C96.7265 65.0763 96.7265 65.0763 96.7265 65.0762C96.7265 65.0762 96.7265 65.0761 96.7265 65.0761C96.7265 65.0761 96.7265 65.076 96.7265 65.076C96.7265 65.0759 96.7265 65.0759 96.7265 65.0758C96.7265 65.0758 96.7265 65.0758 96.7265 65.0757C96.7265 65.0757 96.7265 65.0756 96.7265 65.0756C96.7265 65.0756 96.7265 65.0755 96.7265 65.0755C96.7265 65.0754 96.7265 65.0754 96.7265 65.0754C96.7265 65.0753 96.7265 65.0753 96.7265 65.0752C96.7265 65.0752 96.7265 65.0751 96.7265 65.0751C96.7265 65.0751 96.7265 65.075 96.7265 65.075C96.7265 65.0749 96.7265 65.0749 96.7265 65.0749C96.7265 65.0748 96.7265 65.0748 96.7265 65.0747C96.7265 65.0747 96.7265 65.0747 96.7265 65.0746C96.7265 65.0746 96.7265 65.0745 96.7265 65.0745C96.7265 65.0745 96.7265 65.0744 96.7265 65.0744C96.7265 65.0743 96.7265 65.0743 96.7265 65.0743C96.7265 65.0742 96.7265 65.0742 96.7265 65.0741C96.7265 65.0741 96.7265 65.0741 96.7265 65.074C96.7265 65.074 96.7265 65.0739 96.7265 65.0739C96.7265 65.0739 96.7265 65.0738 96.7265 65.0738C96.7265 65.0737 96.7265 65.0737 96.7265 65.0737C96.7265 65.0736 96.7265 65.0736 96.7265 65.0735C96.7265 65.0735 96.7265 65.0735 96.7265 65.0734C96.7265 65.0734 96.7265 65.0733 96.7265 65.0733C96.7265 65.0733 96.7265 65.0732 96.7265 65.0732C96.7265 65.0731 96.7265 65.0731 96.7265 65.0731C96.7265 65.073 96.7265 65.073 96.7265 65.073C96.7265 65.0729 96.7265 65.0729 96.7265 65.0728C96.7265 65.0728 96.7265 65.0728 96.7265 65.0727C96.7265 65.0727 96.7265 65.0726 96.7265 65.0726C96.7265 65.0726 96.7265 65.0725 96.7265 65.0725C96.7265 65.0725 96.7265 65.0724 96.7265 65.0724C96.7265 65.0723 96.7265 65.0723 96.7265 65.0723C96.7265 65.0722 96.7265 65.0722 96.7265 65.0722C96.7265 65.0721 96.7265 65.0721 96.7265 65.072C96.7265 65.072 96.7265 65.072 96.7265 65.0719C96.7265 65.0719 96.7265 65.0719 96.7265 65.0718C96.7265 65.0718 96.7265 65.0717 96.7265 65.0717C96.7265 65.0717 96.7265 65.0716 96.7265 65.0716C96.7265 65.0716 96.7265 65.0715 96.7265 65.0715C96.7265 65.0714 96.7265 65.0714 96.7265 65.0714C96.7265 65.0713 96.7265 65.0713 96.7265 65.0713C96.7265 65.0712 96.7265 65.0712 96.7265 65.0711C96.7265 65.0711 96.7265 65.0711 96.7265 65.071C96.7265 65.071 96.7265 65.071 96.7265 65.0709C96.7265 65.0709 96.7265 65.0709 96.7265 65.0708C96.7265 65.0708 96.7265 65.0707 96.7265 65.0707C96.7265 65.0707 96.7265 65.0706 96.7265 65.0706C96.7265 65.0706 96.7265 65.0705 96.7265 65.0705C96.7265 65.0705 96.7265 65.0704 96.7265 65.0704C96.7265 65.0704 96.7265 65.0703 96.7265 65.0703C96.7265 65.0702 96.7265 65.0702 96.7265 65.0702C96.7265 65.0701 96.7265 65.0701 96.7265 65.0701C96.7265 65.07 96.7265 65.07 96.7265 65.07C96.7265 65.0699 96.7265 65.0699 96.7265 65.0699C96.7265 65.0698 96.7265 65.0698 96.7265 65.0698C96.7265 65.0697 96.7265 65.0697 96.7265 65.0697C96.7265 65.0696 96.7265 65.0696 96.7265 65.0696C96.7265 65.0695 96.7265 65.0695 96.7265 65.0695C96.7265 65.0694 96.7265 65.0694 96.7265 65.0693C96.7265 65.0693 96.7265 65.0693 96.7265 65.0692C96.7265 65.0692 96.7265 65.0692 96.7265 65.0691C96.7265 65.0691 96.7265 65.0691 96.7265 65.069C96.7265 65.069 96.7265 65.069 96.7265 65.0689C96.7265 65.0689 96.7265 65.0689 96.7265 65.0688C96.7265 65.0688 96.7265 65.0688 96.7265 65.0687C96.7265 65.0687 96.7265 65.0687 96.7265 65.0686C96.7265 65.0686 96.7265 65.0686 96.7265 65.0685C96.7265 65.0685 96.7265 65.0685 96.7265 65.0684C96.7265 65.0684 96.7265 65.0684 96.7265 65.0684C96.7265 65.0683 96.7265 65.0683 96.7265 65.0683H93.7265H90.7265C90.7265 65.0683 90.7265 65.0683 90.7265 65.0684C90.7265 65.0684 90.7265 65.0684 90.7265 65.0684C90.7265 65.0685 90.7265 65.0685 90.7265 65.0685C90.7265 65.0686 90.7265 65.0686 90.7265 65.0686C90.7265 65.0687 90.7265 65.0687 90.7265 65.0687C90.7265 65.0688 90.7265 65.0688 90.7265 65.0688C90.7265 65.0689 90.7265 65.0689 90.7265 65.0689C90.7265 65.069 90.7265 65.069 90.7265 65.069C90.7265 65.0691 90.7265 65.0691 90.7265 65.0691C90.7265 65.0692 90.7265 65.0692 90.7265 65.0692C90.7265 65.0693 90.7265 65.0693 90.7265 65.0693C90.7265 65.0694 90.7265 65.0694 90.7265 65.0695C90.7265 65.0695 90.7265 65.0695 90.7265 65.0696C90.7265 65.0696 90.7265 65.0696 90.7265 65.0697C90.7265 65.0697 90.7265 65.0697 90.7265 65.0698C90.7265 65.0698 90.7265 65.0698 90.7265 65.0699C90.7265 65.0699 90.7265 65.0699 90.7265 65.07C90.7265 65.07 90.7265 65.07 90.7265 65.0701C90.7265 65.0701 90.7265 65.0701 90.7265 65.0702C90.7265 65.0702 90.7265 65.0702 90.7265 65.0703C90.7265 65.0703 90.7265 65.0704 90.7265 65.0704C90.7265 65.0704 90.7265 65.0705 90.7265 65.0705C90.7265 65.0705 90.7265 65.0706 90.7265 65.0706C90.7265 65.0706 90.7265 65.0707 90.7265 65.0707C90.7265 65.0707 90.7265 65.0708 90.7265 65.0708C90.7265 65.0709 90.7265 65.0709 90.7265 65.0709C90.7265 65.071 90.7265 65.071 90.7265 65.071C90.7265 65.0711 90.7265 65.0711 90.7265 65.0711C90.7265 65.0712 90.7265 65.0712 90.7265 65.0713C90.7265 65.0713 90.7265 65.0713 90.7265 65.0714C90.7265 65.0714 90.7265 65.0714 90.7265 65.0715C90.7265 65.0715 90.7265 65.0716 90.7265 65.0716C90.7265 65.0716 90.7265 65.0717 90.7265 65.0717C90.7265 65.0717 90.7265 65.0718 90.7265 65.0718C90.7265 65.0719 90.7265 65.0719 90.7265 65.0719C90.7265 65.072 90.7265 65.072 90.7265 65.072C90.7265 65.0721 90.7265 65.0721 90.7265 65.0722C90.7265 65.0722 90.7265 65.0722 90.7265 65.0723C90.7265 65.0723 90.7265 65.0723 90.7265 65.0724C90.7265 65.0724 90.7265 65.0725 90.7265 65.0725C90.7265 65.0725 90.7265 65.0726 90.7265 65.0726C90.7265 65.0726 90.7265 65.0727 90.7265 65.0727C90.7265 65.0728 90.7265 65.0728 90.7265 65.0728C90.7265 65.0729 90.7265 65.0729 90.7265 65.073C90.7265 65.073 90.7265 65.073 90.7265 65.0731C90.7265 65.0731 90.7265 65.0731 90.7265 65.0732C90.7265 65.0732 90.7265 65.0733 90.7265 65.0733C90.7265 65.0733 90.7265 65.0734 90.7265 65.0734C90.7265 65.0735 90.7265 65.0735 90.7265 65.0735C90.7265 65.0736 90.7265 65.0736 90.7265 65.0737C90.7265 65.0737 90.7265 65.0737 90.7265 65.0738C90.7265 65.0738 90.7265 65.0739 90.7265 65.0739C90.7265 65.0739 90.7265 65.074 90.7265 65.074C90.7265 65.0741 90.7265 65.0741 90.7265 65.0741C90.7265 65.0742 90.7265 65.0742 90.7265 65.0743C90.7265 65.0743 90.7265 65.0743 90.7265 65.0744C90.7265 65.0744 90.7265 65.0745 90.7265 65.0745C90.7265 65.0745 90.7265 65.0746 90.7265 65.0746C90.7265 65.0747 90.7265 65.0747 90.7265 65.0747C90.7265 65.0748 90.7265 65.0748 90.7265 65.0749C90.7265 65.0749 90.7265 65.0749 90.7265 65.075C90.7265 65.075 90.7265 65.0751 90.7265 65.0751C90.7265 65.0751 90.7265 65.0752 90.7265 65.0752C90.7265 65.0753 90.7265 65.0753 90.7265 65.0754C90.7265 65.0754 90.7265 65.0754 90.7265 65.0755C90.7265 65.0755 90.7265 65.0756 90.7265 65.0756C90.7265 65.0756 90.7265 65.0757 90.7265 65.0757C90.7265 65.0758 90.7265 65.0758 90.7265 65.0758C90.7265 65.0759 90.7265 65.0759 90.7265 65.076C90.7265 65.076 90.7265 65.0761 90.7265 65.0761C90.7265 65.0761 90.7265 65.0762 90.7265 65.0762C90.7265 65.0763 90.7265 65.0763 90.7265 65.0763C90.7265 65.0764 90.7265 65.0764 90.7265 65.0765C90.7265 65.0765 90.7265 65.0766 90.7265 65.0766C90.7265 65.0766 90.7265 65.0767 90.7265 65.0767C90.7265 65.0768 90.7265 65.0768 90.7265 65.0769C90.7265 65.0769 90.7265 65.0769 90.7265 65.077C90.7265 65.077 90.7265 65.0771 90.7265 65.0771C90.7265 65.0772 90.7265 65.0772 90.7265 65.0772C90.7265 65.0773 90.7265 65.0773 90.7265 65.0774C90.7265 65.0774 90.7265 65.0775 90.7265 65.0775C90.7265 65.0775 90.7265 65.0776 90.7265 65.0776C90.7265 65.0777 90.7265 65.0777 90.7265 65.0778C90.7265 65.0778 90.7265 65.0778 90.7265 65.0779C90.7265 65.0779 90.7265 65.078 90.7265 65.078C90.7265 65.0781 90.7265 65.0781 90.7265 65.0781C90.7265 65.0782 90.7265 65.0782 90.7265 65.0783C90.7265 65.0783 90.7265 65.0784 90.7265 65.0784C90.7265 65.0784 90.7265 65.0785 90.7265 65.0785C90.7265 65.0786 90.7265 65.0786 90.7265 65.0787C90.7265 65.0787 90.7265 65.0787 90.7265 65.0788C90.7265 65.0788 90.7265 65.0789 90.7265 65.0789C90.7265 65.079 90.7265 65.079 90.7265 65.0791C90.7265 65.0791 90.7265 65.0791 90.7265 65.0792C90.7265 65.0792 90.7265 65.0793 90.7265 65.0793C90.7265 65.0794 90.7265 65.0794 90.7265 65.0795C90.7265 65.0795 90.7265 65.0795 90.7265 65.0796C90.7265 65.0796 90.7265 65.0797 90.7265 65.0797C90.7265 65.0798 90.7265 65.0798 90.7265 65.0798C90.7265 65.0799 90.7265 65.0799 90.7265 65.08C90.7265 65.08 90.7265 65.0801 90.7265 65.0801C90.7265 65.0802 90.7265 65.0802 90.7265 65.0803C90.7265 65.0803 90.7265 65.0803 90.7265 65.0804C90.7265 65.0804 90.7265 65.0805 90.7265 65.0805C90.7265 65.0806 90.7265 65.0806 90.7265 65.0807C90.7265 65.0807 90.7265 65.0807 90.7265 65.0808C90.7265 65.0808 90.7265 65.0809 90.7265 65.0809C90.7265 65.081 90.7265 65.081 90.7265 65.0811C90.7265 65.0811 90.7265 65.0811 90.7265 65.0812C90.7265 65.0812 90.7265 65.0813 90.7265 65.0813C90.7265 65.0814 90.7265 65.0814 90.7265 65.0815C90.7265 65.0815 90.7265 65.0816 90.7265 65.0816C90.7265 65.0816 90.7265 65.0817 90.7265 65.0817C90.7265 65.0818 90.7265 65.0818 90.7265 65.0819C90.7265 65.0819 90.7265 65.082 90.7265 65.082C90.7265 65.0821 90.7265 65.0821 90.7265 65.0821C90.7265 65.0822 90.7265 65.0822 90.7265 65.0823C90.7265 65.0823 90.7265 65.0824 90.7265 65.0824C90.7265 65.0825 90.7265 65.0825 90.7265 65.0826C90.7265 65.0826 90.7265 65.0826 90.7265 65.0827C90.7265 65.0827 90.7265 65.0828 90.7265 65.0828C90.7265 65.0829 90.7265 65.0829 90.7265 65.083C90.7265 65.083 90.7265 65.0831 90.7265 65.0831C90.7265 65.0832 90.7265 65.0832 90.7265 65.0832C90.7265 65.0833 90.7265 65.0833 90.7265 65.0834C90.7265 65.0834 90.7265 65.0835 90.7265 65.0835C90.7265 65.0836 90.7265 65.0836 90.7265 65.0837C90.7265 65.0837 90.7265 65.0838 90.7265 65.0838C90.7265 65.0838 90.7265 65.0839 90.7265 65.0839C90.7265 65.084 90.7265 65.084 90.7265 65.0841C90.7265 65.0841 90.7265 65.0842 90.7265 65.0842C90.7265 65.0843 90.7265 65.0843 90.7265 65.0844C90.7265 65.0844 90.7265 65.0844 90.7265 65.0845C90.7265 65.0845 90.7265 65.0846 90.7265 65.0846C90.7265 65.0847 90.7265 65.0847 90.7265 65.0848C90.7265 65.0848 90.7265 65.0849 90.7265 65.0849C90.7265 65.085 90.7265 65.085 90.7265 65.0851C90.7265 65.0851 90.7265 65.0851 90.7265 65.0852C90.7265 65.0852 90.7265 65.0853 90.7265 65.0853C90.7265 65.0854 90.7265 65.0854 90.7265 65.0855C90.7265 65.0855 90.7265 65.0856 90.7265 65.0856C90.7265 65.0857 90.7265 65.0857 90.7265 65.0858C90.7265 65.0858 90.7265 65.0859 90.7265 65.0859C90.7265 65.0859 90.7265 65.086 90.7265 65.086C90.7265 65.0861 90.7265 65.0861 90.7265 65.0862C90.7265 65.0862 90.7265 65.0863 90.7265 65.0863C90.7265 65.0864 90.7265 65.0864 90.7265 65.0865C90.7265 65.0865 90.7265 65.0866 90.7265 65.0866C90.7265 65.0867 90.7265 65.0867 90.7265 65.0867C90.7265 65.0868 90.7265 65.0868 90.7265 65.0869C90.7265 65.0869 90.7265 65.087 90.7265 65.087C90.7265 65.0871 90.7265 65.0871 90.7265 65.0872C90.7265 65.0872 90.7265 65.0873 90.7265 65.0873C90.7265 65.0874 90.7265 65.0874 90.7265 65.0875C90.7265 65.0875 90.7265 65.0876 90.7265 65.0876C90.7265 65.0876 90.7265 65.0877 90.7265 65.0877C90.7265 65.0878 90.7265 65.0878 90.7265 65.0879C90.7265 65.0879 90.7265 65.088 90.7265 65.088C90.7265 65.0881 90.7265 65.0881 90.7265 65.0882C90.7265 65.0882 90.7265 65.0883 90.7265 65.0883C90.7265 65.0884 90.7265 65.0884 90.7265 65.0885C90.7265 65.0885 90.7265 65.0885 90.7265 65.0886C90.7265 65.0886 90.7265 65.0887 90.7265 65.0887C90.7265 65.0888 90.7265 65.0888 90.7265 65.0889C90.7265 65.0889 90.7265 65.089 90.7265 65.089C90.7265 65.0891 90.7265 65.0891 90.7265 65.0892C90.7265 65.0892 90.7265 65.0893 90.7265 65.0893C90.7265 65.0894 90.7265 65.0894 90.7265 65.0895C90.7265 65.0895 90.7265 65.0895 90.7265 65.0896C90.7265 65.0896 90.7265 65.0897 90.7265 65.0897C90.7265 65.0898 90.7265 65.0898 90.7265 65.0899C90.7265 65.0899 90.7265 65.09 90.7265 65.09C90.7265 65.0901 90.7265 65.0901 90.7265 65.0902C90.7265 65.0902 90.7265 65.0903 90.7265 65.0903C90.7265 65.0904 90.7265 65.0904 90.7265 65.0905C90.7265 65.0905 90.7265 65.0906 90.7265 65.0906C90.7265 65.0906 90.7265 65.0907 90.7265 65.0907C90.7265 65.0908 90.7265 65.0908 90.7265 65.0909C90.7265 65.0909 90.7265 65.091 90.7265 65.091C90.7265 65.0911 90.7265 65.0911 90.7265 65.0912C90.7265 65.0912 90.7265 65.0913 90.7265 65.0913C90.7265 65.0914 90.7265 65.0914 90.7265 65.0915C90.7265 65.0915 90.7265 65.0916 90.7265 65.0916C90.7265 65.0916 90.7265 65.0917 90.7265 65.0917C90.7265 65.0918 90.7265 65.0918 90.7265 65.0919C90.7265 65.0919 90.7265 65.092 90.7265 65.092C90.7265 65.0921 90.7265 65.0921 90.7265 65.0922C90.7265 65.0922 90.7265 65.0923 90.7265 65.0923C90.7265 65.0924 90.7265 65.0924 90.7265 65.0925C90.7265 65.0925 90.7265 65.0926 90.7265 65.0926C90.7265 65.0927 90.7265 65.0927 90.7265 65.0927C90.7265 65.0928 90.7265 65.0928 90.7265 65.0929C90.7265 65.0929 90.7265 65.093 90.7265 65.093C90.7265 65.0931 90.7265 65.0931 90.7265 65.0932C90.7265 65.0932 90.7265 65.0933 90.7265 65.0933C90.7265 65.0934 90.7265 65.0934 90.7265 65.0935C90.7265 65.0935 90.7265 65.0936 90.7265 65.0936C90.7265 65.0937 90.7265 65.0937 90.7265 65.0938C90.7265 65.0938 90.7265 65.0938 90.7265 65.0939C90.7265 65.0939 90.7265 65.094 90.7265 65.094C90.7265 65.0941 90.7265 65.0941 90.7265 65.0942C90.7265 65.0942 90.7265 65.0943 90.7265 65.0943C90.7265 65.0944 90.7265 65.0944 90.7265 65.0945C90.7265 65.0945 90.7265 65.0946 90.7265 65.0946C90.7265 65.0947 90.7265 65.0947 90.7265 65.0948C90.7265 65.0948 90.7265 65.0949 90.7265 65.0949C90.7265 65.0949 90.7265 65.095 90.7265 65.095C90.7265 65.0951 90.7265 65.0951 90.7265 65.0952C90.7265 65.0952 90.7265 65.0953 90.7265 65.0953C90.7265 65.0954 90.7265 65.0954 90.7265 65.0955C90.7265 65.0955 90.7265 65.0956 90.7265 65.0956C90.7265 65.0957 90.7265 65.0957 90.7265 65.0958C90.7265 65.0958 90.7265 65.0958 90.7265 65.0959C90.7265 65.0959 90.7265 65.096 90.7265 65.096C90.7265 65.0961 90.7265 65.0961 90.7265 65.0962C90.7265 65.0962 90.7265 65.0963 90.7265 65.0963C90.7265 65.0964 90.7265 65.0964 90.7265 65.0965C90.7265 65.0965 90.7265 65.0966 90.7265 65.0966C90.7265 65.0967 90.7265 65.0967 90.7265 65.0968C90.7265 65.0968 90.7265 65.0968 90.7265 65.0969C90.7265 65.0969 90.7265 65.097 90.7265 65.097C90.7265 65.0971 90.7265 65.0971 90.7265 65.0972C90.7265 65.0972 90.7265 65.0973 90.7265 65.0973C90.7265 65.0974 90.7265 65.0974 90.7265 65.0975C90.7265 65.0975 90.7265 65.0976 90.7265 65.0976C90.7265 65.0976 90.7265 65.0977 90.7265 65.0977C90.7265 65.0978 90.7265 65.0978 90.7265 65.0979C90.7265 65.0979 90.7265 65.098 90.7265 65.098C90.7265 65.0981 90.7265 65.0981 90.7265 65.0982C90.7265 65.0982 90.7265 65.0983 90.7265 65.0983C90.7265 65.0984 90.7265 65.0984 90.7265 65.0984C90.7265 65.0985 90.7265 65.0985 90.7265 65.0986C90.7265 65.0986 90.7265 65.0987 90.7265 65.0987C90.7265 65.0988 90.7265 65.0988 90.7265 65.0989C90.7265 65.0989 90.7265 65.099 90.7265 65.099C90.7265 65.0991 90.7265 65.0991 90.7265 65.0991C90.7265 65.0992 90.7265 65.0992 90.7265 65.0993C90.7265 65.0993 90.7265 65.0994 90.7265 65.0994C90.7265 65.0995 90.7265 65.0995 90.7265 65.0996C90.7265 65.0996 90.7265 65.0997 90.7265 65.0997C90.7265 65.0998 90.7265 65.0998 90.7265 65.0998C90.7265 65.0999 90.7265 65.0999 90.7265 65.1C90.7265 65.1 90.7265 65.1001 90.7265 65.1001C90.7265 65.1002 90.7265 65.1002 90.7265 65.1003C90.7265 65.1003 90.7265 65.1004 90.7265 65.1004C90.7265 65.1005 90.7265 65.1005 90.7265 65.1005C90.7265 65.1006 90.7265 65.1006 90.7265 65.1007C90.7265 65.1007 90.7265 65.1008 90.7265 65.1008C90.7265 65.1009 90.7265 65.1009 90.7265 65.101C90.7265 65.101 90.7265 65.1011 90.7265 65.1011C90.7265 65.1011 90.7265 65.1012 90.7265 65.1012C90.7265 65.1013 90.7265 65.1013 90.7265 65.1014C90.7265 65.1014 90.7265 65.1015 90.7265 65.1015C90.7265 65.1016 90.7265 65.1016 90.7265 65.1016C90.7265 65.1017 90.7265 65.1017 90.7265 65.1018C90.7265 65.1018 90.7265 65.1019 90.7265 65.1019C90.7265 65.102 90.7265 65.102 90.7265 65.1021C90.7265 65.1021 90.7265 65.1021 90.7265 65.1022C90.7265 65.1022 90.7265 65.1023 90.7265 65.1023C90.7265 65.1024 90.7265 65.1024 90.7265 65.1025C90.7265 65.1025 90.7265 65.1026 90.7265 65.1026C90.7265 65.1026 90.7265 65.1027 90.7265 65.1027C90.7265 65.1028 90.7265 65.1028 90.7265 65.1029C90.7265 65.1029 90.7265 65.103 90.7265 65.103C90.7265 65.1031 90.7265 65.1031 90.7265 65.1031C90.7265 65.1032 90.7265 65.1032 90.7265 65.1033C90.7265 65.1033 90.7265 65.1034 90.7265 65.1034C90.7265 65.1035 90.7265 65.1035 90.7265 65.1035C90.7265 65.1036 90.7265 65.1036 90.7265 65.1037C90.7265 65.1037 90.7265 65.1038 90.7265 65.1038C90.7265 65.1039 90.7265 65.1039 90.7265 65.104C90.7265 65.104 90.7265 65.104 90.7265 65.1041C90.7265 65.1041 90.7265 65.1042 90.7265 65.1042C90.7265 65.1043 90.7265 65.1043 90.7265 65.1044C90.7265 65.1044 90.7265 65.1044 90.7265 65.1045C90.7265 65.1045 90.7265 65.1046 90.7265 65.1046C90.7265 65.1047 90.7265 65.1047 90.7265 65.1048C90.7265 65.1048 90.7265 65.1048 90.7265 65.1049C90.7265 65.1049 90.7265 65.105 90.7265 65.105C90.7265 65.1051 90.7265 65.1051 90.7265 65.1051C90.7265 65.1052 90.7265 65.1052 90.7265 65.1053C90.7265 65.1053 90.7265 65.1054 90.7265 65.1054C90.7265 65.1055 90.7265 65.1055 90.7265 65.1055C90.7265 65.1056 90.7265 65.1056 90.7265 65.1057C90.7265 65.1057 90.7265 65.1058 90.7265 65.1058C90.7265 65.1058 90.7265 65.1059 90.7265 65.1059C90.7265 65.106 90.7265 65.106 90.7265 65.1061C90.7265 65.1061 90.7265 65.1061 90.7265 65.1062C90.7265 65.1062 90.7265 65.1063 90.7265 65.1063C90.7265 65.1064 90.7265 65.1064 90.7265 65.1064C90.7265 65.1065 90.7265 65.1065 90.7265 65.1066C90.7265 65.1066 90.7265 65.1067 90.7265 65.1067C90.7265 65.1067 90.7265 65.1068 90.7265 65.1068C90.7265 65.1069 90.7265 65.1069 90.7265 65.107C90.7265 65.107 90.7265 65.107 90.7265 65.1071C90.7265 65.1071 90.7265 65.1072 90.7265 65.1072C90.7265 65.1073 90.7265 65.1073 90.7265 65.1073C90.7265 65.1074 90.7265 65.1074 90.7265 65.1075C90.7265 65.1075 90.7265 65.1076 90.7265 65.1076C90.7265 65.1076 90.7265 65.1077 90.7265 65.1077C90.7265 65.1078 90.7265 65.1078 90.7265 65.1078C90.7265 65.1079 90.7265 65.1079 90.7265 65.108C90.7265 65.108 90.7265 65.1081 90.7265 65.1081C90.7265 65.1081 90.7265 65.1082 90.7265 65.1082C90.7265 65.1083 90.7265 65.1083 90.7265 65.1083C90.7265 65.1084 90.7265 65.1084 90.7265 65.1085C90.7265 65.1085 90.7265 65.1086 90.7265 65.1086C90.7265 65.1086 90.7265 65.1087 90.7265 65.1087C90.7265 65.1088 90.7265 65.1088 90.7265 65.1088C90.7265 65.1089 90.7265 65.1089 90.7265 65.109C90.7265 65.109 90.7265 65.109 90.7265 65.1091C90.7265 65.1091 90.7265 65.1092 90.7265 65.1092C90.7265 65.1093 90.7265 65.1093 90.7265 65.1093C90.7265 65.1094 90.7265 65.1094 90.7265 65.1095C90.7265 65.1095 90.7265 65.1095 90.7265 65.1096C90.7265 65.1096 90.7265 65.1097 90.7265 65.1097C90.7265 65.1097 90.7265 65.1098 90.7265 65.1098C90.7265 65.1099 90.7265 65.1099 90.7265 65.1099C90.7265 65.11 90.7265 65.11 90.7265 65.1101C90.7265 65.1101 90.7265 65.1101 90.7265 65.1102C90.7265 65.1102 90.7265 65.1103 90.7265 65.1103C90.7265 65.1103 90.7265 65.1104 90.7265 65.1104C90.7265 65.1105 90.7265 65.1105 90.7265 65.1105C90.7265 65.1106 90.7265 65.1106 90.7265 65.1107C90.7265 65.1107 90.7265 65.1107 90.7265 65.1108C90.7265 65.1108 90.7265 65.1108 90.7265 65.1109C90.7265 65.1109 90.7265 65.111 90.7265 65.111C90.7265 65.111 90.7265 65.1111 90.7265 65.1111C90.7265 65.1112 90.7265 65.1112 90.7265 65.1112C90.7265 65.1113 90.7265 65.1113 90.7265 65.1114C90.7265 65.1114 90.7265 65.1114 90.7265 65.1115C90.7265 65.1115 90.7265 65.1115 90.7265 65.1116C90.7265 65.1116 90.7265 65.1117 90.7265 65.1117C90.7265 65.1117 90.7265 65.1118 90.7265 65.1118C90.7265 65.1118 90.7265 65.1119 90.7265 65.1119C90.7265 65.112 90.7265 65.112 90.7265 65.112C90.7265 65.1121 90.7265 65.1121 90.7265 65.1122C90.7265 65.1122 90.7265 65.1122 90.7265 65.1123C90.7265 65.1123 90.7265 65.1123 90.7265 65.1124C90.7265 65.1124 90.7265 65.1124 90.7265 65.1125C90.7265 65.1125 90.7265 65.1126 90.7265 65.1126C90.7265 65.1126 90.7265 65.1127 90.7265 65.1127C90.7265 65.1127 90.7265 65.1128 90.7265 65.1128C90.7265 65.1129 90.7265 65.1129 90.7265 65.1129C90.7265 65.113 90.7265 65.113 90.7265 65.113C90.7265 65.1131 90.7265 65.1131 90.7265 65.1131C90.7265 65.1132 90.7265 65.1132 90.7265 65.1133C90.7265 65.1133 90.7265 65.1133 90.7265 65.1134C90.7265 65.1134 90.7265 65.1134 90.7265 65.1135C90.7265 65.1135 90.7265 65.1135 90.7265 65.1136C90.7265 65.1136 90.7265 65.1137 90.7265 65.1137C90.7265 65.1137 90.7265 65.1138 90.7265 65.1138C90.7265 65.1138 90.7265 65.1139 90.7265 65.1139C90.7265 65.1139 90.7265 65.114 90.7265 65.114C90.7265 65.114 90.7265 65.1141 90.7265 65.1141C90.7265 65.1141 90.7265 65.1142 90.7265 65.1142C90.7265 65.1143 90.7265 65.1143 90.7265 65.1143C90.7265 65.1144 90.7265 65.1144 90.7265 65.1144C90.7265 65.1145 90.7265 65.1145 90.7265 65.1145C90.7265 65.1146 90.7265 65.1146 90.7265 65.1146C90.7265 65.1147 90.7265 65.1147 90.7265 65.1147C90.7265 65.1148 90.7265 65.1148 90.7265 65.1148C90.7265 65.1149 90.7265 65.1149 90.7265 65.1149C90.7265 65.115 90.7265 65.115 90.7265 65.115C90.7265 65.1151 90.7265 65.1151 90.7265 65.1151C90.7265 65.1152 90.7265 65.1152 90.7265 65.1152C90.7265 65.1153 90.7265 65.1153 90.7265 65.1153C90.7265 65.1154 90.7265 65.1154 90.7265 65.1154C90.7265 65.1155 90.7265 65.1155 90.7265 65.1155C90.7265 65.1156 90.7265 65.1156 90.7265 65.1156C90.7265 65.1157 90.7265 65.1157 90.7265 65.1157C90.7265 65.1158 90.7265 65.1158 90.7265 65.1158C90.7265 65.1159 90.7265 65.1159 90.7265 65.1159C90.7265 65.116 90.7265 65.116 90.7265 65.116C90.7265 65.1161 90.7265 65.1161 90.7265 65.1161C90.7265 65.1161 90.7265 65.1162 90.7265 65.1162C90.7265 65.1162 90.7265 65.1163 90.7265 65.1163C90.7265 65.1163 90.7265 65.1164 90.7265 65.1164C90.7265 65.1164 90.7265 65.1165 90.7265 65.1165C90.7265 65.1165 90.7265 65.1166 90.7265 65.1166C90.7265 65.1166 90.7265 65.1166 90.7265 65.1167C90.7265 65.1167 90.7265 65.1167 90.7265 65.1168C90.7265 65.1168 90.7265 65.1168 90.7265 65.1169C90.7265 65.1169 90.7265 65.1169 90.7265 65.117C90.7265 65.117 90.7265 65.117 90.7265 65.117C90.7265 65.1171 90.7265 65.1171 90.7265 65.1171C90.7265 65.1172 90.7265 65.1172 90.7265 65.1172C90.7265 65.1173 90.7265 65.1173 90.7265 65.1173C90.7265 65.1173 90.7265 65.1174 90.7265 65.1174C90.7265 65.1174 90.7265 65.1175 90.7265 65.1175C90.7265 65.1175 90.7265 65.1175 90.7265 65.1176C90.7265 65.1176 90.7265 65.1176 90.7265 65.1177C90.7265 65.1177 90.7265 65.1177 90.7265 65.1177C90.7265 65.1178 90.7265 65.1178 90.7265 65.1178C90.7265 65.1179 90.7265 65.1179 90.7265 65.1179C90.7265 65.1179 90.7265 65.118 90.7265 65.118C90.7265 65.118 90.7265 65.1181 90.7265 65.1181C90.7265 65.1181 90.7265 65.1181 90.7265 65.1182C90.7265 65.1182 90.7265 65.1182 90.7265 65.1182C90.7265 65.1183 90.7265 65.1183 90.7265 65.1183C90.7265 65.1184 90.7265 65.1184 90.7265 65.1184C90.7265 65.1184 90.7265 65.1185 90.7265 65.1185C90.7265 65.1185 90.7265 65.1185 90.7265 65.1186C90.7265 65.1186 90.7265 65.1186 90.7265 65.1187C90.7265 65.1187 90.7265 65.1187 90.7265 65.1187C90.7265 65.1188 90.7265 65.1188 90.7265 65.1188C90.7265 65.1188 90.7265 65.1189 90.7265 65.1189C90.7265 65.1189 90.7265 65.1189 90.7265 65.119C90.7265 65.119 90.7265 65.119 90.7265 65.119C90.7265 65.1191 90.7265 65.1191 90.7265 65.1191C90.7265 65.1191 90.7265 65.1192 90.7265 65.1192C90.7265 65.1192 90.7265 65.1192 90.7265 65.1193C90.7265 65.1193 90.7265 65.1193 90.7265 65.1193C90.7265 65.1194 90.7265 65.1194 90.7265 65.1194C90.7265 65.1194 90.7265 65.1195 90.7265 65.1195C90.7265 65.1195 90.7265 65.1195 90.7265 65.1196C90.7265 65.1196 90.7265 65.1196 90.7265 65.1196C90.7265 65.1197 90.7265 65.1197 90.7265 65.1197C90.7265 65.1197 90.7265 65.1198 90.7265 65.1198C90.7265 65.1198 90.7265 65.1198 90.7265 65.1198C90.7265 65.1199 90.7265 65.1199 90.7265 65.1199C90.7265 65.1199 90.7265 65.12 90.7265 65.12C90.7265 65.12 90.7265 65.12 90.7265 65.1201C90.7265 65.1201 90.7265 65.1201 90.7265 65.1201C90.7265 65.1201 90.7265 65.1202 90.7265 65.1202C90.7265 65.1202 90.7265 65.1202 90.7265 65.1203C90.7265 65.1203 90.7265 65.1203 90.7265 65.1203C90.7265 65.1203 90.7265 65.1204 90.7265 65.1204C90.7265 65.1204 90.7265 65.1204 90.7265 65.1204C90.7265 65.1205 90.7265 65.1205 90.7265 65.1205C90.7265 65.1205 90.7265 65.1206 90.7265 65.1206C90.7265 65.1206 90.7265 65.1206 90.7265 65.1206C90.7265 65.1207 90.7265 65.1207 90.7265 65.1207C90.7265 65.1207 90.7265 65.1207 90.7265 65.1208C90.7265 65.1208 90.7265 65.1208 90.7265 65.1208C90.7265 65.1208 90.7265 65.1209 90.7265 65.1209C90.7265 65.1209 90.7265 65.1209 90.7265 65.1209C90.7265 65.121 90.7265 65.121 90.7265 65.121C90.7265 65.121 90.7265 65.121 90.7265 65.121C90.7265 65.1211 90.7265 65.1211 90.7265 65.1211C90.7265 65.1211 90.7265 65.1211 90.7265 65.1212C90.7265 65.1212 90.7265 65.1212 90.7265 65.1212C90.7265 65.1212 90.7265 65.1213 90.7265 65.1213C90.7265 65.1213 90.7265 65.1213 90.7265 65.1213C90.7265 65.1213 90.7265 65.1214 90.7265 65.1214C90.7265 65.1214 90.7265 65.1214 90.7265 65.1214C90.7265 65.1214 90.7265 65.1215 90.7265 65.1215C90.7265 65.1215 90.7265 65.1215 90.7265 65.1215C90.7265 65.1216 90.7265 65.1216 90.7265 65.1216C90.7265 65.1216 90.7265 65.1216 90.7265 65.1216C90.7265 65.1217 90.7265 65.1217 90.7265 65.1217C90.7265 65.1217 90.7265 65.1217 90.7265 65.1217C90.7265 65.1217 90.7265 65.1218 90.7265 65.1218C90.7265 65.1218 90.7265 65.1218 90.7265 65.1218C90.7265 65.1218 90.7265 65.1219 90.7265 65.1219C90.7265 65.1219 90.7265 65.1219 90.7265 65.1219C90.7265 65.1219 90.7265 65.1219 90.7265 65.122C90.7265 65.122 90.7265 65.122 90.7265 65.122C90.7265 65.122 90.7265 65.122 90.7265 65.1221C90.7265 65.1221 90.7265 65.1221 90.7265 65.1221C90.7265 65.1221 90.7265 65.1221 90.7265 65.1221C90.7265 65.1221 90.7265 65.1222 90.7265 65.1222C90.7265 65.1222 90.7265 65.1222 90.7265 65.1222C90.7265 65.1222 90.7265 65.1222 90.7265 65.1223C90.7265 65.1223 90.7265 65.1223 90.7265 65.1223C90.7265 65.1223 90.7265 65.1223 90.7265 65.1223C90.7265 65.1223 90.7265 65.1224 90.7265 65.1224C90.7265 65.1224 90.7265 65.1224 90.7265 65.1224C90.7265 65.1224 90.7265 65.1224 90.7265 65.1224C90.7265 65.1225 90.7265 65.1225 90.7265 65.1225C90.7265 65.1225 90.7265 65.1225 90.7265 65.1225C90.7265 65.1225 90.7265 65.1225 90.7265 65.1225C90.7265 65.1226 90.7265 65.1226 90.7265 65.1226C90.7265 65.1226 90.7265 65.1226 90.7265 65.1226C90.7265 65.1226 90.7265 65.1226 90.7265 65.1226C90.7265 65.1227 90.7265 65.1227 90.7265 65.1227C90.7265 65.1227 90.7265 65.1227 90.7265 65.1227C90.7265 65.1227 90.7265 65.1227 90.7265 65.1227C90.7265 65.1227 90.7265 65.1227 90.7265 65.1228C90.7265 65.1228 90.7265 65.1228 90.7265 65.1228C90.7265 65.1228 90.7265 65.1228 90.7265 65.1228C90.7265 65.1228 90.7265 65.1228 90.7265 65.1228C90.7265 65.1228 90.7265 65.1229 90.7265 65.1229C90.7265 65.1229 90.7265 65.1229 90.7265 65.1229C90.7265 65.1229 90.7265 65.1229 90.7265 65.1229C90.7265 65.1229 90.7265 65.1229 90.7265 65.1229C90.7265 65.1229 90.7265 65.1229 90.7265 65.123C90.7265 65.123 90.7265 65.123 90.7265 65.123C90.7265 65.123 90.7265 65.123 90.7265 65.123C90.7265 65.123 90.7265 65.123 90.7265 65.123C90.7265 65.123 90.7265 65.123 90.7265 65.123C90.7265 65.123 90.7265 65.123 90.7265 65.123C90.7265 65.1231 90.7265 65.1231 90.7265 65.1231C90.7265 65.1231 90.7265 65.1231 90.7265 65.1231C90.7265 65.1231 90.7265 65.1231 90.7265 65.1231C90.7265 65.1231 90.7265 65.1231 90.7265 65.1231C90.7265 65.1231 90.7265 65.1231 90.7265 65.1231C90.7265 65.1231 90.7265 65.1231 90.7265 65.1231C90.7265 65.1231 90.7265 65.1231 90.7265 65.1231C90.7265 65.1232 90.7265 65.1232 90.7265 65.1232C90.7265 65.1232 90.7265 65.1232 90.7265 65.1232C90.7265 65.1232 90.7265 65.1232 90.7265 65.1232C90.7265 65.1232 90.7265 65.1232 90.7265 65.1232C90.7265 65.1232 90.7265 65.1232 90.7265 65.1232C90.7265 65.1232 90.7265 65.1232 90.7265 65.1232C90.7265 65.1232 90.7265 65.1232 90.7265 65.1232C90.7265 65.1232 90.7265 65.1232 90.7265 65.1232C90.7265 65.1232 90.7265 65.1232 90.7265 65.1232C90.7265 65.1232 90.7265 65.1232 90.7265 65.1232C90.7265 65.1232 90.7265 65.1232 90.7265 65.1232C90.7265 65.1232 90.7265 65.1232 90.7265 65.1232C90.7265 65.1232 90.7265 65.1232 93.7265 65.1232ZM93.7265 65.0683H96.7265V43.9904H93.7265H90.7265V65.0683H93.7265ZM93.7265 43.9904L95.5276 41.5912L65.6338 19.1503L63.8328 21.5495L62.0317 23.9487L91.9255 46.3896L93.7265 43.9904ZM63.8328 21.5495H60.8328V42.5229H63.8328H66.8328V21.5495H63.8328ZM63.8328 42.5229H60.8328V42.5284H63.8328H66.8328V42.5229H63.8328Z" fill="black" mask="url(#path-5-inside-3_84_3)"/>
<mask id="path-7-inside-4_84_3" fill="white">
<path d="M64.1742 64.7939H63.4707V85.3771H64.1742V64.7939Z"/>
</mask>
<path d="M64.1742 64.7939H63.4707V85.3771H64.1742V64.7939Z" fill="#051314"/>
<path d="M63.4707 64.7939V61.7939H60.4707V64.7939H63.4707ZM64.1742 64.7939H67.1742V61.7939H64.1742V64.7939ZM64.1742 85.3771V88.3771H67.1742V85.3771H64.1742ZM63.4707 85.3771H60.4707V88.3771H63.4707V85.3771ZM63.4707 64.7939V67.7939H64.1742V64.7939V61.7939H63.4707V64.7939ZM64.1742 64.7939H61.1742V85.3771H64.1742H67.1742V64.7939H64.1742ZM64.1742 85.3771V82.3771H63.4707V85.3771V88.3771H64.1742V85.3771ZM63.4707 85.3771H66.4707V64.7939H63.4707H60.4707V85.3771H63.4707Z" fill="black" mask="url(#path-7-inside-4_84_3)"/>
<mask id="path-9-inside-5_84_3" fill="white">
<path d="M33.473 84.9644H32.7695V104.558H33.473V84.9644Z"/>
</mask>
<path d="M33.473 84.9644H32.7695V104.558H33.473V84.9644Z" fill="#051314"/>
<path d="M32.7695 84.9644V81.9644H29.7695V84.9644H32.7695ZM33.473 84.9644H36.473V81.9644H33.473V84.9644ZM33.473 104.558V107.558H36.473V104.558H33.473ZM32.7695 104.558H29.7695V107.558H32.7695V104.558ZM32.7695 84.9644V87.9644H33.473V84.9644V81.9644H32.7695V84.9644ZM33.473 84.9644H30.473V104.558H33.473H36.473V84.9644H33.473ZM33.473 104.558V101.558H32.7695V104.558V107.558H33.473V104.558ZM32.7695 104.558H35.7695V84.9644H32.7695H29.7695V104.558H32.7695Z" fill="black" mask="url(#path-9-inside-5_84_3)"/>
<mask id="path-11-inside-6_84_3" fill="white">
<path d="M93.7488 87.0647L93.6211 107.389L94.3246 107.394L94.4523 87.0691L93.7488 87.0647Z"/>
</mask>
<path d="M93.7488 87.0647L93.6211 107.389L94.3246 107.394L94.4523 87.0691L93.7488 87.0647Z" fill="#051314"/>
<path d="M93.6211 107.389L90.6212 107.37L90.6023 110.37L93.6022 110.389L93.6211 107.389ZM93.7488 87.0647L93.7676 84.0647L90.7677 84.0459L90.7489 87.0458L93.7488 87.0647ZM94.4523 87.0691L97.4522 87.0879L97.4711 84.088L94.4711 84.0692L94.4523 87.0691ZM94.3246 107.394L94.3057 110.394L97.3057 110.412L97.3245 107.412L94.3246 107.394ZM93.6211 107.389L96.621 107.408L96.7487 87.0835L93.7488 87.0647L90.7489 87.0458L90.6212 107.37L93.6211 107.389ZM93.7488 87.0647L93.7299 90.0646L94.4334 90.069L94.4523 87.0691L94.4711 84.0692L93.7676 84.0647L93.7488 87.0647ZM94.4523 87.0691L91.4524 87.0502L91.3246 107.375L94.3246 107.394L97.3245 107.412L97.4522 87.0879L94.4523 87.0691ZM94.3246 107.394L94.3434 104.394L93.6399 104.389L93.6211 107.389L93.6022 110.389L94.3057 110.394L94.3246 107.394Z" fill="black" mask="url(#path-11-inside-6_84_3)"/>
</svg>
