<svg width="108" height="109" viewBox="0 0 108 109" fill="none" xmlns="http://www.w3.org/2000/svg">
<path d="M53.165 1.4707C53.47 1.16584 53.9013 1.06391 54.292 1.16211H54.002C53.7351 1.16211 53.4814 1.2559 53.2803 1.41504L53.1973 1.4873L53.1895 1.49512L0.878906 53.8154C0.658607 54.0358 0.546 54.325 0.545898 54.6279C0.545898 54.9402 0.670323 55.2225 0.871094 55.4326L0.878906 55.4414L53.1943 107.756C53.6351 108.197 54.3737 108.197 54.8145 107.756L107.13 55.4414C107.35 55.221 107.463 54.9311 107.463 54.6279C107.463 54.3156 107.339 54.0333 107.138 53.8232L54.8145 1.5C54.7213 1.40689 54.6155 1.33359 54.502 1.2793V1.23633C54.6238 1.29301 54.7385 1.37035 54.8389 1.4707L107.154 53.7861C107.379 54.011 107.499 54.3051 107.499 54.623C107.499 54.9398 107.375 55.2395 107.154 55.46L54.8389 107.775C54.614 108 54.3199 108.12 54.002 108.12H53.9043C53.6265 108.097 53.367 107.979 53.1621 107.777L0.849609 55.46C0.388384 54.9987 0.388416 54.2474 0.849609 53.7861L53.165 1.4707Z" fill="#051314" stroke="black"/>
<path d="M81.2945 82.2505H26.9883V26.834H81.2892V82.2505H81.2945ZM28.0291 81.2096H80.2537V27.8748H28.0291V81.215V81.2096Z" fill="#051314"/>
<path d="M81.3182 27.3505L27.3203 81.3672L28.0527 82.0993L82.0505 28.0826L81.3182 27.3505Z" fill="#051314"/>
<path d="M27.7791 27.0842L27.0469 27.8164L80.1596 80.9292L80.8919 80.1969L27.7791 27.0842Z" fill="#051314"/>
<path d="M107.967 54.1055H0.0429688V55.141H107.967V54.1055Z" fill="#051314"/>
<path d="M54.5199 0.660413L53.4844 0.666016L54.0651 108.007L55.1007 108.001L54.5199 0.660413Z" fill="#051314"/>
</svg>
